<svg data-cover="arms:covered" xmlns="http://www.w3.org/2000/svg" viewBox="0 0 512 512" data-copyright="© 2026 Sensory App House"><!--SAH-COPYRIGHT © 2026 Sensory App House. All rights reserved.--><metadata id="sah-copyright"><rdf:RDF xmlns:rdf="http://www.w3.org/1999/02/22-rdf-syntax-ns#" xmlns:dc="http://purl.org/dc/elements/1.1/" xmlns:cc="http://creativecommons.org/ns#"><cc:Work rdf:about=""><dc:rights><cc:Agent><dc:title>© 2026 Sensory App House. All rights reserved.</dc:title></cc:Agent></dc:rights><dc:creator><cc:Agent><dc:title>Sensory App House (PiCom)</dc:title></cc:Agent></dc:creator><dc:date>2026</dc:date></cc:Work></rdf:RDF></metadata><metadata id="sah">{"v":1,"fig":[["h1","fa"],["h2","ma"]]}</metadata><g data-fit="1" transform="translate(256 256) scale(1.1553) translate(-261.00 -269.00)">
<line x1="70" y1="455" x2="452" y2="455" stroke="#9aa7b5" stroke-width="5" stroke-linecap="round"/>
<path d="M 120.0 197.0 L 180.0 197.0 L 180.0 287.0 L 206.0 389.0 L 94.0 389.0 L 120.0 287.0 Z" fill="#3d8a6b" stroke="#1a1a1a" stroke-width="5" stroke-linejoin="round"/>
<line x1="132" y1="389" x2="180" y2="455" stroke="#1a1a1a" stroke-width="13.0" stroke-linecap="round"/>
<line x1="168" y1="389" x2="124" y2="455" stroke="#1a1a1a" stroke-width="13.0" stroke-linecap="round"/>
<ellipse cx="180" cy="457" rx="13" ry="7" fill="#33373d"/>
<ellipse cx="124" cy="457" rx="13" ry="7" fill="#33373d"/>
<line x1="120" y1="199" x2="106" y2="305" stroke="#1a1a1a" stroke-width="13.0" stroke-linecap="round"/>
<line x1="180" y1="199" x2="200" y2="287" stroke="#1a1a1a" stroke-width="13.0" stroke-linecap="round"/>
<line x1="150" y1="197" x2="150" y2="166" stroke="#1a1a1a" stroke-width="13.0" stroke-linecap="round"/>
<path d="M 103.0 184.0 L 103.0 128.0 Q 103.0 76.0 150 76.0 Q 197.0 76.0 197.0 128.0 L 197.0 184.0 L 184.0 184.0 L 184.0 130.0 Q 184.0 96.0 150 96.0 Q 116.0 96.0 116.0 130.0 L 116.0 184.0 Z" fill="#5a3a1f" stroke="#1a1a1a" stroke-width="3" stroke-linejoin="round"/>
<path d="M 120.0 223 L 180.0 223 L 212.0 455 Q 150.0 465 88.0 455 Z" fill="#6db5d8" stroke="#1a1a1a" stroke-width="4" stroke-linejoin="round"/>
<path d="M 114.0 199 L 186.0 199 L 180.0 229 L 120.0 229 Z" fill="#f3ede0" stroke="#1a1a1a" stroke-width="4" stroke-linejoin="round"/>
<path d="M 116.0 203 L 150.0 271 L 184.0 203" fill="none" stroke="#d24b6a" stroke-width="4" stroke-linejoin="round"/>
<path d="M 112.0 201 Q 108.0 219 116.0 227" fill="none" stroke="#f3ede0" stroke-width="4" stroke-linejoin="round"/>
<path d="M 188.0 201 Q 192.0 219 184.0 227" fill="none" stroke="#f3ede0" stroke-width="4" stroke-linejoin="round"/>
<line x1="156" y1="227" x2="152" y2="231" stroke="#c0392b" stroke-width="6" stroke-linecap="round"/>
<line x1="156" y1="227" x2="162" y2="233" stroke="#c0392b" stroke-width="6" stroke-linecap="round"/>
<line x1="120" y1="199" x2="106" y2="305" stroke="#ffffff" stroke-width="20" stroke-linecap="round"/>
<line x1="120" y1="199" x2="106" y2="305" stroke="#1a1a1a" stroke-width="13.0" stroke-linecap="round"/>
<line x1="180" y1="199" x2="200" y2="287" stroke="#ffffff" stroke-width="20" stroke-linecap="round"/>
<line x1="180" y1="199" x2="200" y2="287" stroke="#1a1a1a" stroke-width="13.0" stroke-linecap="round"/>
<circle id="h1" data-fig="fa" class="skin" cx="150" cy="130" r="40" fill="#f5d6b0" stroke="#1a1a1a" stroke-width="6"/>
<path d="M 112.0 96.0 Q 150 82.0 188.0 96.0 Q 150 92.0 112.0 96.0 Z" fill="#5a3a1f" stroke="#1a1a1a" stroke-width="3" stroke-linejoin="round"/>
<path d="M 156.0 227 l -14 -8 l 0 12 Z" fill="#c0392b" stroke="#1a1a1a" stroke-width="2" stroke-linejoin="round"/>
<path d="M 156.0 227 l 14 -8 l 0 12 Z" fill="#c0392b" stroke="#1a1a1a" stroke-width="2" stroke-linejoin="round"/>
<line x1="315" y1="303" x2="360" y2="455" stroke="#39425c" stroke-width="16.0" stroke-linecap="round"/>
<line x1="345" y1="303" x2="304" y2="455" stroke="#39425c" stroke-width="16.0" stroke-linecap="round"/>
<ellipse cx="360" cy="457" rx="13" ry="7" fill="#33373d"/>
<ellipse cx="304" cy="457" rx="13" ry="7" fill="#33373d"/>
<polygon points="298,197 362,197 360,305 300,305" fill="#cfd8e0" stroke="#1a1a1a" stroke-width="5" stroke-linejoin="round"/>
<line x1="300" y1="199" x2="286" y2="305" stroke="#1a1a1a" stroke-width="13.0" stroke-linecap="round"/>
<line x1="360" y1="199" x2="380" y2="287" stroke="#1a1a1a" stroke-width="13.0" stroke-linecap="round"/>
<line x1="330" y1="197" x2="330" y2="166" stroke="#1a1a1a" stroke-width="13.0" stroke-linecap="round"/>
<path d="M 324.0 323 L 294.0 323 L 304.0 455 L 324.0 455 Z" fill="#e9e3d4" stroke="#1a1a1a" stroke-width="4" stroke-linejoin="round"/>
<path d="M 336.0 323 L 366.0 323 L 356.0 455 L 336.0 455 Z" fill="#e9e3d4" stroke="#1a1a1a" stroke-width="4" stroke-linejoin="round"/>
<path d="M 294.0 199 L 366.0 199 L 364.0 323 L 296.0 323 Z" fill="#cfd8e0" stroke="#1a1a1a" stroke-width="4" stroke-linejoin="round"/>
<path d="M 294.0 199 Q 278.0 221 288.0 251" fill="none" stroke="#cfd8e0" stroke-width="7" stroke-linejoin="round"/>
<path d="M 366.0 199 Q 382.0 221 372.0 251" fill="none" stroke="#cfd8e0" stroke-width="7" stroke-linejoin="round"/>
<path d="M 306.0 205 L 354.0 205 L 356.0 307 L 304.0 307 Z" fill="#3a5f7a" stroke="#1a1a1a" stroke-width="4" stroke-linejoin="round"/>
<path d="M 296.0 203 L 330.0 271 L 364.0 203" fill="none" stroke="#f3ede0" stroke-width="4" stroke-linejoin="round"/>
<rect x="301" y="293" width="58" height="12" rx="0" fill="#2e4153" stroke="#1a1a1a" stroke-width="3"/>
<line x1="300" y1="199" x2="286" y2="305" stroke="#ffffff" stroke-width="20" stroke-linecap="round"/>
<line x1="300" y1="199" x2="286" y2="305" stroke="#1a1a1a" stroke-width="13.0" stroke-linecap="round"/>
<line x1="360" y1="199" x2="380" y2="287" stroke="#ffffff" stroke-width="20" stroke-linecap="round"/>
<line x1="360" y1="199" x2="380" y2="287" stroke="#1a1a1a" stroke-width="13.0" stroke-linecap="round"/>
<circle id="h2" data-fig="ma" class="skin" cx="330" cy="130" r="40" fill="#f5d6b0" stroke="#1a1a1a" stroke-width="6"/>
<path d="M 290.0 130.0 Q 290.0 80.0 330 80.0 Q 370.0 80.0 370.0 130.0 Q 330 103.0 290.0 130.0 Z" fill="#241c14" stroke="#1a1a1a" stroke-width="3" stroke-linejoin="round"/>
<circle cx="206" cy="300" r="5" fill="#9aa7b5" stroke="#1a1a1a" stroke-width="0"/>
<circle cx="232" cy="300" r="5" fill="#9aa7b5" stroke="#1a1a1a" stroke-width="0"/>
<circle cx="258" cy="300" r="5" fill="#9aa7b5" stroke="#1a1a1a" stroke-width="0"/>
<circle cx="284" cy="300" r="5" fill="#9aa7b5" stroke="#1a1a1a" stroke-width="0"/>
<line x1="296" y1="300" x2="322" y2="300" stroke="#1a1a1a" stroke-width="15.0" stroke-linecap="round"/><line x1="322" y1="300" x2="306" y2="309" stroke="#1a1a1a" stroke-width="15.0" stroke-linecap="round"/><line x1="322" y1="300" x2="306" y2="291" stroke="#1a1a1a" stroke-width="15.0" stroke-linecap="round"/><line x1="296" y1="300" x2="322" y2="300" stroke="#2f9e4a" stroke-width="9.5" stroke-linecap="round"/>
<line x1="322" y1="300" x2="306" y2="309" stroke="#2f9e4a" stroke-width="9.5" stroke-linecap="round"/>
<line x1="322" y1="300" x2="306" y2="291" stroke="#2f9e4a" stroke-width="9.5" stroke-linecap="round"/>
</g></svg>
