<svg data-cover="arms:covered" xmlns="http://www.w3.org/2000/svg" viewBox="0 0 512 512" data-copyright="© 2026 Sensory App House"><!--SAH-COPYRIGHT © 2026 Sensory App House. All rights reserved.--><metadata id="sah-copyright"><rdf:RDF xmlns:rdf="http://www.w3.org/1999/02/22-rdf-syntax-ns#" xmlns:dc="http://purl.org/dc/elements/1.1/" xmlns:cc="http://creativecommons.org/ns#"><cc:Work rdf:about=""><dc:rights><cc:Agent><dc:title>© 2026 Sensory App House. All rights reserved.</dc:title></cc:Agent></dc:rights><dc:creator><cc:Agent><dc:title>Sensory App House (PiCom)</dc:title></cc:Agent></dc:creator><dc:date>2026</dc:date></cc:Work></rdf:RDF></metadata><metadata id="sah">{"v":1,"fig":[["h1","fa"]]}</metadata><g data-fit="1" transform="translate(256 256) scale(0.9426) translate(-256.00 -256.00)">
<rect x="20.0" y="320.0" width="472.0" height="132.0" rx="8" fill="#454e58" stroke="#1a1a1a" stroke-width="6"/>
<rect x="20.0" y="320.0" width="70.0" height="132.0" rx="0" fill="#cdd3da" stroke="#1a1a1a" stroke-width="0"/>
<rect x="82.0" y="320.0" width="8.0" height="132.0" rx="0" fill="#9aa7b3" stroke="#1a1a1a" stroke-width="0"/>
<rect x="422.0" y="320.0" width="70.0" height="132.0" rx="0" fill="#cdd3da" stroke="#1a1a1a" stroke-width="0"/>
<rect x="422.0" y="320.0" width="8.0" height="132.0" rx="0" fill="#9aa7b3" stroke="#1a1a1a" stroke-width="0"/>
<rect x="20.0" y="320.0" width="472.0" height="132.0" rx="8" fill="none" stroke="#1a1a1a" stroke-width="6"/>
<rect x="96.0" y="332.0" width="29.1" height="108.0" rx="0" fill="#ffffff" stroke="#1a1a1a" stroke-width="0"/>
<rect x="154.2" y="332.0" width="29.1" height="108.0" rx="0" fill="#ffffff" stroke="#1a1a1a" stroke-width="0"/>
<rect x="212.4" y="332.0" width="29.1" height="108.0" rx="0" fill="#ffffff" stroke="#1a1a1a" stroke-width="0"/>
<rect x="270.5" y="332.0" width="29.1" height="108.0" rx="0" fill="#ffffff" stroke="#1a1a1a" stroke-width="0"/>
<rect x="328.7" y="332.0" width="29.1" height="108.0" rx="0" fill="#ffffff" stroke="#1a1a1a" stroke-width="0"/>
<rect x="386.9" y="332.0" width="29.1" height="108.0" rx="0" fill="#ffffff" stroke="#1a1a1a" stroke-width="0"/>
<line x1="235" y1="282" x2="280" y2="434" stroke="#39425c" stroke-width="16.0" stroke-linecap="round"/>
<line x1="265" y1="282" x2="224" y2="434" stroke="#39425c" stroke-width="16.0" stroke-linecap="round"/>
<ellipse cx="280" cy="436" rx="13" ry="7" fill="#33373d"/>
<ellipse cx="224" cy="436" rx="13" ry="7" fill="#33373d"/>
<polygon points="218,176 282,176 280,284 220,284" fill="#3d6fb0" stroke="#1a1a1a" stroke-width="5" stroke-linejoin="round"/>
<line x1="220" y1="178" x2="206" y2="284" stroke="#1a1a1a" stroke-width="13.0" stroke-linecap="round"/>
<line x1="280" y1="178" x2="300" y2="266" stroke="#1a1a1a" stroke-width="13.0" stroke-linecap="round"/>
<line x1="250" y1="176" x2="250" y2="145" stroke="#1a1a1a" stroke-width="13.0" stroke-linecap="round"/>
<path d="M 203.0 163.0 L 203.0 107.0 Q 203.0 55.0 250.0 55.0 Q 297.0 55.0 297.0 107.0 L 297.0 163.0 L 284.0 163.0 L 284.0 109.0 Q 284.0 75.0 250.0 75.0 Q 216.0 75.0 216.0 109.0 L 216.0 163.0 Z" fill="#5a3a1f" stroke="#1a1a1a" stroke-width="3"/>
<g transform="translate(0,-21)"><path d="M 216.0 197 L 284.0 197 L 282.0 335 L 218.0 335 Z" fill="#f3ede0" stroke="#1a1a1a" stroke-width="4"/>
<path d="M 214.0 199 L 286.0 199 L 280.0 229 L 220.0 229 Z" fill="#f3ede0" stroke="#1a1a1a" stroke-width="4" stroke-linejoin="round"/>
<path d="M 216.0 203 L 250.0 271 L 284.0 203" fill="none" stroke="#d24b6a" stroke-width="4" stroke-linejoin="round"/>
<path d="M 212.0 201 Q 208.0 219 216.0 227" fill="none" stroke="#f3ede0" stroke-width="4" stroke-linejoin="round"/>
<path d="M 288.0 201 Q 292.0 219 284.0 227" fill="none" stroke="#f3ede0" stroke-width="4" stroke-linejoin="round"/>
<line x1="256" y1="227" x2="252" y2="231" stroke="#c0392b" stroke-width="6" stroke-linecap="round"/>
<line x1="256" y1="227" x2="262" y2="233" stroke="#c0392b" stroke-width="6" stroke-linecap="round"/></g>
<line x1="220" y1="178" x2="206" y2="284" stroke="#ffffff" stroke-width="20" stroke-linecap="round"/>
<line x1="220" y1="178" x2="206" y2="284" stroke="#1a1a1a" stroke-width="13.0" stroke-linecap="round"/>
<line x1="280" y1="178" x2="300" y2="266" stroke="#ffffff" stroke-width="20" stroke-linecap="round"/>
<line x1="280" y1="178" x2="300" y2="266" stroke="#1a1a1a" stroke-width="13.0" stroke-linecap="round"/>
<circle id="h1" data-fig="fa" class="skin" cx="250" cy="109" r="40" fill="#f5d6b0" stroke="#1a1a1a" stroke-width="6"/>
<path d="M 212.0 75.0 Q 250.0 61.0 288.0 75.0 Q 250.0 71.0 212.0 75.0 Z" fill="#5a3a1f" stroke="#1a1a1a" stroke-width="3"/>
<g transform="translate(0,-21)"><path d="M 256.0 227 l -14 -8 l 0 12 Z" fill="#c0392b" stroke="#1a1a1a" stroke-width="2" stroke-linejoin="round"/>
<path d="M 256.0 227 l 14 -8 l 0 12 Z" fill="#c0392b" stroke="#1a1a1a" stroke-width="2" stroke-linejoin="round"/></g>
</g></svg>
