<svg data-cover="arms:covered" xmlns="http://www.w3.org/2000/svg" viewBox="64.43 46.51 448.00 448.00"><metadata id="sah">{"v":1,"fig":[["h1","fa"],["h2","ma"],["h3","ma"]]}</metadata>
<line x1="137" y1="305" x2="128" y2="455" stroke="#39425c" stroke-width="16" stroke-linecap="round"/>
<line x1="163" y1="305" x2="172" y2="455" stroke="#39425c" stroke-width="16" stroke-linecap="round"/>
<ellipse cx="128" cy="457" rx="13" ry="7" fill="#33373d" stroke="#1a1a1a" stroke-width="4"/>
<ellipse cx="172" cy="457" rx="13" ry="7" fill="#33373d" stroke="#1a1a1a" stroke-width="4"/>
<polygon points="118,197 182,197 180,305 120,305" fill="#d6529e" stroke="#1a1a1a" stroke-width="5" stroke-linejoin="round"/>
<line x1="150" y1="197" x2="150" y2="166" stroke="#1a1a1a" stroke-width="14" stroke-linecap="round"/>
<path d="M 103 184 L 103 128 Q 103 76 150 76 Q 197 76 197 128 L 197 184 L 184 184 L 184 130 Q 184 96 150 96 Q 116 96 116 130 L 116 184 Z" fill="#5a3a1f" stroke="#1a1a1a" stroke-width="3" stroke-linejoin="round"/>
<path d="M 120.0 223 L 180.0 223 L 212.0 455 Q 150.0 465 88.0 455 Z" fill="#6db5d8" stroke="#1a1a1a" stroke-width="4" stroke-linejoin="round"/>
<path d="M 114.0 199 L 186.0 199 L 180.0 229 L 120.0 229 Z" fill="#f3ede0" stroke="#1a1a1a" stroke-width="4" stroke-linejoin="round"/>
<path d="M 116.0 203 L 150.0 271 L 184.0 203" fill="none" stroke="#d24b6a" stroke-width="4" stroke-linejoin="round"/>
<path d="M 112.0 201 Q 108.0 219 116.0 227" fill="none" stroke="#f3ede0" stroke-width="4" stroke-linejoin="round"/>
<path d="M 188.0 201 Q 192.0 219 184.0 227" fill="none" stroke="#f3ede0" stroke-width="4" stroke-linejoin="round"/>
<line x1="156" y1="227" x2="152" y2="231" stroke="#c0392b" stroke-width="6" stroke-linecap="round"/>
<line x1="156" y1="227" x2="162" y2="233" stroke="#c0392b" stroke-width="6" stroke-linecap="round"/>
<line x1="120" y1="201" x2="106" y2="305" stroke="#ffffff" stroke-width="21" stroke-linecap="round"/>
<line x1="120" y1="201" x2="106" y2="305" stroke="#1a1a1a" stroke-width="14" stroke-linecap="round"/>
<line x1="180" y1="201" x2="180" y2="255" stroke="#ffffff" stroke-width="21" stroke-linecap="round"/>
<line x1="180" y1="201" x2="180" y2="255" stroke="#1a1a1a" stroke-width="14" stroke-linecap="round"/>
<line x1="218" y1="201" x2="218" y2="255" stroke="#ffffff" stroke-width="21" stroke-linecap="round"/>
<line x1="218" y1="201" x2="218" y2="255" stroke="#1a1a1a" stroke-width="14" stroke-linecap="round"/>
<circle id="h1" data-fig="fa" class="skin" cx="150" cy="130" r="40" fill="#f5d6b0" stroke="#1a1a1a" stroke-width="6"/>
<path d="M 112 96 Q 150 82 188 96 Q 150 92 112 96 Z" fill="#5a3a1f" stroke="#1a1a1a" stroke-width="3" stroke-linejoin="round"/>
<path d="M 156.0 227 l -14 -8 l 0 12 Z" fill="#c0392b" stroke="#1a1a1a" stroke-width="2" stroke-linejoin="round"/>
<path d="M 156.0 227 l 14 -8 l 0 12 Z" fill="#c0392b" stroke="#1a1a1a" stroke-width="2" stroke-linejoin="round"/>
<line x1="235" y1="305" x2="226" y2="455" stroke="#39425c" stroke-width="16" stroke-linecap="round"/>
<line x1="261" y1="305" x2="270" y2="455" stroke="#39425c" stroke-width="16" stroke-linecap="round"/>
<ellipse cx="226" cy="457" rx="13" ry="7" fill="#33373d" stroke="#1a1a1a" stroke-width="4"/>
<ellipse cx="270" cy="457" rx="13" ry="7" fill="#33373d" stroke="#1a1a1a" stroke-width="4"/>
<polygon points="216,197 280,197 278,305 218,305" fill="#cfd8e0" stroke="#1a1a1a" stroke-width="5" stroke-linejoin="round"/>
<line x1="248" y1="197" x2="248" y2="166" stroke="#1a1a1a" stroke-width="14" stroke-linecap="round"/>
<path d="M 242.0 323 L 212.0 323 L 222.0 455 L 242.0 455 Z" fill="#e9e3d4" stroke="#1a1a1a" stroke-width="4" stroke-linejoin="round"/>
<path d="M 254.0 323 L 284.0 323 L 274.0 455 L 254.0 455 Z" fill="#e9e3d4" stroke="#1a1a1a" stroke-width="4" stroke-linejoin="round"/>
<path d="M 212.0 199 L 284.0 199 L 282.0 323 L 214.0 323 Z" fill="#cfd8e0" stroke="#1a1a1a" stroke-width="4" stroke-linejoin="round"/>
<path d="M 212.0 199 Q 196.0 221 206.0 251" fill="none" stroke="#cfd8e0" stroke-width="7" stroke-linejoin="round"/>
<path d="M 284.0 199 Q 300.0 221 290.0 251" fill="none" stroke="#cfd8e0" stroke-width="7" stroke-linejoin="round"/>
<path d="M 224.0 205 L 272.0 205 L 274.0 307 L 222.0 307 Z" fill="#3a5f7a" stroke="#1a1a1a" stroke-width="4" stroke-linejoin="round"/>
<path d="M 214.0 203 L 248.0 271 L 282.0 203" fill="none" stroke="#f3ede0" stroke-width="4" stroke-linejoin="round"/>
<rect x="219" y="293" width="58" height="12" rx="0" fill="#2e4153" stroke="#1a1a1a" stroke-width="3"/>
<line x1="180" y1="201" x2="180" y2="255" stroke="#ffffff" stroke-width="21" stroke-linecap="round"/>
<line x1="180" y1="201" x2="180" y2="255" stroke="#1a1a1a" stroke-width="14" stroke-linecap="round"/>
<line x1="218" y1="201" x2="218" y2="255" stroke="#ffffff" stroke-width="21" stroke-linecap="round"/>
<line x1="218" y1="201" x2="218" y2="255" stroke="#1a1a1a" stroke-width="14" stroke-linecap="round"/>
<line x1="278" y1="201" x2="292" y2="305" stroke="#ffffff" stroke-width="21" stroke-linecap="round"/>
<line x1="278" y1="201" x2="292" y2="305" stroke="#1a1a1a" stroke-width="14" stroke-linecap="round"/>
<circle id="h2" data-fig="ma" class="skin" cx="248" cy="130" r="40" fill="#f5d6b0" stroke="#1a1a1a" stroke-width="6"/>
<path d="M 208 130 Q 208 80 248 80 Q 288 80 288 130 Q 248 103 208 130 Z" fill="#241c14" stroke="#1a1a1a" stroke-width="3" stroke-linejoin="round"/>
<line x1="120" y1="201" x2="106" y2="305" stroke="#1a1a1a" stroke-width="14" stroke-linecap="round"/>
<line x1="180" y1="201" x2="180" y2="255" stroke="#1a1a1a" stroke-width="14" stroke-linecap="round"/>
<line x1="218" y1="201" x2="218" y2="255" stroke="#1a1a1a" stroke-width="14" stroke-linecap="round"/>
<line x1="278" y1="201" x2="292" y2="305" stroke="#1a1a1a" stroke-width="14" stroke-linecap="round"/>
<path d="M 294.0 104.0 L 366.0 104.0 Q 378.0 104.0 378.0 116.0 L 378.0 144.0 Q 378.0 156.0 366.0 156.0 L 343.0 156.0 L 320.0 186.0 L 317.0 156.0 L 294.0 156.0 Q 282.0 156.0 282.0 144.0 L 282.0 116.0 Q 282.0 104.0 294.0 104.0 Z" fill="#ffffff" stroke="#1a1a1a" stroke-width="3" stroke-linejoin="round"/>
<circle cx="316" cy="130" r="3" fill="#1a1a1a" stroke="#1a1a1a" stroke-width="0"/>
<circle cx="330" cy="130" r="3" fill="#1a1a1a" stroke="#1a1a1a" stroke-width="0"/>
<circle cx="344" cy="130" r="3" fill="#1a1a1a" stroke="#1a1a1a" stroke-width="0"/>
<line x1="405" y1="303" x2="396" y2="455" stroke="#39425c" stroke-width="16.0" stroke-linecap="round"/>
<line x1="435" y1="303" x2="444" y2="455" stroke="#39425c" stroke-width="16.0" stroke-linecap="round"/>
<ellipse cx="396" cy="457" rx="13" ry="7" fill="#33373d"/>
<ellipse cx="444" cy="457" rx="13" ry="7" fill="#33373d"/>
<polygon points="388,197 452,197 450,305 390,305" fill="#cfd8e0" stroke="#1a1a1a" stroke-width="5" stroke-linejoin="round"/>
<line x1="390" y1="199" x2="370" y2="305" stroke="#1a1a1a" stroke-width="13.0" stroke-linecap="round"/>
<line x1="450" y1="199" x2="470" y2="305" stroke="#1a1a1a" stroke-width="13.0" stroke-linecap="round"/>
<line x1="420" y1="197" x2="420" y2="166" stroke="#1a1a1a" stroke-width="13.0" stroke-linecap="round"/>
<path d="M 414.0 323 L 384.0 323 L 394.0 455 L 414.0 455 Z" fill="#e9e3d4" stroke="#1a1a1a" stroke-width="4" stroke-linejoin="round"/>
<path d="M 426.0 323 L 456.0 323 L 446.0 455 L 426.0 455 Z" fill="#e9e3d4" stroke="#1a1a1a" stroke-width="4" stroke-linejoin="round"/>
<path d="M 384.0 199 L 456.0 199 L 454.0 323 L 386.0 323 Z" fill="#cfd8e0" stroke="#1a1a1a" stroke-width="4" stroke-linejoin="round"/>
<path d="M 384.0 199 Q 368.0 221 378.0 251" fill="none" stroke="#cfd8e0" stroke-width="7" stroke-linejoin="round"/>
<path d="M 456.0 199 Q 472.0 221 462.0 251" fill="none" stroke="#cfd8e0" stroke-width="7" stroke-linejoin="round"/>
<path d="M 396.0 205 L 444.0 205 L 446.0 307 L 394.0 307 Z" fill="#3a5f7a" stroke="#1a1a1a" stroke-width="4" stroke-linejoin="round"/>
<path d="M 386.0 203 L 420.0 271 L 454.0 203" fill="none" stroke="#f3ede0" stroke-width="4" stroke-linejoin="round"/>
<rect x="391" y="293" width="58" height="12" rx="0" fill="#2e4153" stroke="#1a1a1a" stroke-width="3"/>
<line x1="390" y1="199" x2="370" y2="305" stroke="#ffffff" stroke-width="20" stroke-linecap="round"/>
<line x1="390" y1="199" x2="370" y2="305" stroke="#1a1a1a" stroke-width="13.0" stroke-linecap="round"/>
<line x1="450" y1="199" x2="470" y2="305" stroke="#ffffff" stroke-width="20" stroke-linecap="round"/>
<line x1="450" y1="199" x2="470" y2="305" stroke="#1a1a1a" stroke-width="13.0" stroke-linecap="round"/>
<circle id="h3" data-fig="ma" class="skin" cx="420" cy="130" r="40" fill="#f5d6b0" stroke="#1a1a1a" stroke-width="6"/>
<path d="M 380.0 130.0 Q 380.0 80.0 420 80.0 Q 460.0 80.0 460.0 130.0 Q 420 103.0 380.0 130.0 Z" fill="#241c14" stroke="#1a1a1a" stroke-width="3" stroke-linejoin="round"/>
<line x1="366" y1="130" x2="396" y2="142" stroke="#1a1a1a" stroke-width="12.0" stroke-linecap="round"/><line x1="396" y1="142" x2="379" y2="144" stroke="#1a1a1a" stroke-width="12.0" stroke-linecap="round"/><line x1="396" y1="142" x2="385" y2="129" stroke="#1a1a1a" stroke-width="12.0" stroke-linecap="round"/><g transform="translate(366 136) scale(1.450) translate(-366 -136)"><line x1="366" y1="130" x2="396" y2="142" stroke="#9aa7b5" stroke-width="6.5" stroke-linecap="round"/></g>
<g transform="translate(366 136) scale(1.450) translate(-366 -136)"><line x1="396" y1="142" x2="379" y2="144" stroke="#9aa7b5" stroke-width="6.5" stroke-linecap="round"/></g>
<g transform="translate(366 136) scale(1.450) translate(-366 -136)"><line x1="396" y1="142" x2="385" y2="129" stroke="#9aa7b5" stroke-width="6.5" stroke-linecap="round"/></g>
</svg>
