<svg data-cover="arms:covered" xmlns="http://www.w3.org/2000/svg" viewBox="40.11 26.45 469.33 469.33"><metadata id="sah">{"v":1,"fig":[["h1","ma"],["h2","fa"],["h3","ma"]]}</metadata>
<line x1="110" y1="455" x2="402" y2="455" stroke="#9aa7b5" stroke-width="5" stroke-linecap="round"/>
<line x1="147" y1="305" x2="138" y2="455" stroke="#39425c" stroke-width="16" stroke-linecap="round"/>
<line x1="173" y1="305" x2="182" y2="455" stroke="#39425c" stroke-width="16" stroke-linecap="round"/>
<ellipse cx="138" cy="457" rx="13" ry="7" fill="#33373d" stroke="#1a1a1a" stroke-width="4"/>
<ellipse cx="182" cy="457" rx="13" ry="7" fill="#33373d" stroke="#1a1a1a" stroke-width="4"/>
<polygon points="128,197 192,197 190,305 130,305" fill="#cfd8e0" stroke="#1a1a1a" stroke-width="5" stroke-linejoin="round"/>
<line x1="160" y1="197" x2="160" y2="166" stroke="#1a1a1a" stroke-width="14" stroke-linecap="round"/>
<path d="M 154.0 323 L 124.0 323 L 134.0 455 L 154.0 455 Z" fill="#e9e3d4" stroke="#1a1a1a" stroke-width="4" stroke-linejoin="round"/>
<path d="M 166.0 323 L 196.0 323 L 186.0 455 L 166.0 455 Z" fill="#e9e3d4" stroke="#1a1a1a" stroke-width="4" stroke-linejoin="round"/>
<path d="M 124.0 199 L 196.0 199 L 194.0 323 L 126.0 323 Z" fill="#cfd8e0" stroke="#1a1a1a" stroke-width="4" stroke-linejoin="round"/>
<path d="M 124.0 199 Q 108.0 221 118.0 251" fill="none" stroke="#cfd8e0" stroke-width="7" stroke-linejoin="round"/>
<path d="M 196.0 199 Q 212.0 221 202.0 251" fill="none" stroke="#cfd8e0" stroke-width="7" stroke-linejoin="round"/>
<path d="M 136.0 205 L 184.0 205 L 186.0 307 L 134.0 307 Z" fill="#3a5f7a" stroke="#1a1a1a" stroke-width="4" stroke-linejoin="round"/>
<path d="M 126.0 203 L 160.0 271 L 194.0 203" fill="none" stroke="#f3ede0" stroke-width="4" stroke-linejoin="round"/>
<rect x="131" y="293" width="58" height="12" rx="0" fill="#2e4153" stroke="#1a1a1a" stroke-width="3"/>
<line x1="130" y1="201" x2="120" y2="305" stroke="#ffffff" stroke-width="21" stroke-linecap="round"/>
<line x1="130" y1="201" x2="120" y2="305" stroke="#1a1a1a" stroke-width="14" stroke-linecap="round"/>
<line x1="190" y1="201" x2="200" y2="305" stroke="#ffffff" stroke-width="21" stroke-linecap="round"/>
<line x1="190" y1="201" x2="200" y2="305" stroke="#1a1a1a" stroke-width="14" stroke-linecap="round"/>
<line x1="226" y1="201" x2="216" y2="305" stroke="#ffffff" stroke-width="21" stroke-linecap="round"/>
<line x1="226" y1="201" x2="216" y2="305" stroke="#1a1a1a" stroke-width="14" stroke-linecap="round"/>
<circle id="h1" data-fig="ma" class="skin" cx="160" cy="130" r="40" fill="#f5d6b0" stroke="#1a1a1a" stroke-width="6"/>
<path d="M 120 130 Q 120 80 160 80 Q 200 80 200 130 Q 160 103 120 130 Z" fill="#241c14" stroke="#1a1a1a" stroke-width="3" stroke-linejoin="round"/>
<line x1="130" y1="201" x2="120" y2="305" stroke="#1a1a1a" stroke-width="14" stroke-linecap="round"/>
<line x1="190" y1="201" x2="200" y2="305" stroke="#1a1a1a" stroke-width="14" stroke-linecap="round"/>
<line x1="243" y1="305" x2="234" y2="455" stroke="#39425c" stroke-width="16" stroke-linecap="round"/>
<line x1="269" y1="305" x2="278" y2="455" stroke="#39425c" stroke-width="16" stroke-linecap="round"/>
<ellipse cx="234" cy="457" rx="13" ry="7" fill="#33373d" stroke="#1a1a1a" stroke-width="4"/>
<ellipse cx="278" cy="457" rx="13" ry="7" fill="#33373d" stroke="#1a1a1a" stroke-width="4"/>
<polygon points="224,197 288,197 286,305 226,305" fill="#d6529e" stroke="#1a1a1a" stroke-width="5" stroke-linejoin="round"/>
<line x1="256" y1="197" x2="256" y2="166" stroke="#1a1a1a" stroke-width="14" stroke-linecap="round"/>
<path d="M 209 184 L 209 128 Q 209 76 256 76 Q 303 76 303 128 L 303 184 L 290 184 L 290 130 Q 290 96 256 96 Q 222 96 222 130 L 222 184 Z" fill="#5a3a1f" stroke="#1a1a1a" stroke-width="3" stroke-linejoin="round"/>
<path d="M 226.0 223 L 286.0 223 L 318.0 455 Q 256.0 465 194.0 455 Z" fill="#6db5d8" stroke="#1a1a1a" stroke-width="4" stroke-linejoin="round"/>
<path d="M 220.0 199 L 292.0 199 L 286.0 229 L 226.0 229 Z" fill="#f3ede0" stroke="#1a1a1a" stroke-width="4" stroke-linejoin="round"/>
<path d="M 222.0 203 L 256.0 271 L 290.0 203" fill="none" stroke="#d24b6a" stroke-width="4" stroke-linejoin="round"/>
<path d="M 218.0 201 Q 214.0 219 222.0 227" fill="none" stroke="#f3ede0" stroke-width="4" stroke-linejoin="round"/>
<path d="M 294.0 201 Q 298.0 219 290.0 227" fill="none" stroke="#f3ede0" stroke-width="4" stroke-linejoin="round"/>
<line x1="262" y1="227" x2="258" y2="231" stroke="#c0392b" stroke-width="6" stroke-linecap="round"/>
<line x1="262" y1="227" x2="268" y2="233" stroke="#c0392b" stroke-width="6" stroke-linecap="round"/>
<line x1="190" y1="201" x2="200" y2="305" stroke="#ffffff" stroke-width="21" stroke-linecap="round"/>
<line x1="190" y1="201" x2="200" y2="305" stroke="#1a1a1a" stroke-width="14" stroke-linecap="round"/>
<line x1="226" y1="201" x2="216" y2="305" stroke="#ffffff" stroke-width="21" stroke-linecap="round"/>
<line x1="226" y1="201" x2="216" y2="305" stroke="#1a1a1a" stroke-width="14" stroke-linecap="round"/>
<line x1="286" y1="201" x2="296" y2="305" stroke="#ffffff" stroke-width="21" stroke-linecap="round"/>
<line x1="286" y1="201" x2="296" y2="305" stroke="#1a1a1a" stroke-width="14" stroke-linecap="round"/>
<line x1="322" y1="201" x2="312" y2="305" stroke="#ffffff" stroke-width="21" stroke-linecap="round"/>
<line x1="322" y1="201" x2="312" y2="305" stroke="#1a1a1a" stroke-width="14" stroke-linecap="round"/>
<circle id="h2" data-fig="fa" class="skin" cx="256" cy="130" r="40" fill="#f5d6b0" stroke="#1a1a1a" stroke-width="6"/>
<path d="M 218 96 Q 256 82 294 96 Q 256 92 218 96 Z" fill="#5a3a1f" stroke="#1a1a1a" stroke-width="3" stroke-linejoin="round"/>
<path d="M 262.0 227 l -14 -8 l 0 12 Z" fill="#c0392b" stroke="#1a1a1a" stroke-width="2" stroke-linejoin="round"/>
<path d="M 262.0 227 l 14 -8 l 0 12 Z" fill="#c0392b" stroke="#1a1a1a" stroke-width="2" stroke-linejoin="round"/>
<line x1="226" y1="201" x2="216" y2="305" stroke="#1a1a1a" stroke-width="14" stroke-linecap="round"/>
<line x1="286" y1="201" x2="296" y2="305" stroke="#1a1a1a" stroke-width="14" stroke-linecap="round"/>
<line x1="339" y1="305" x2="330" y2="455" stroke="#39425c" stroke-width="16" stroke-linecap="round"/>
<line x1="365" y1="305" x2="374" y2="455" stroke="#39425c" stroke-width="16" stroke-linecap="round"/>
<ellipse cx="330" cy="457" rx="13" ry="7" fill="#33373d" stroke="#1a1a1a" stroke-width="4"/>
<ellipse cx="374" cy="457" rx="13" ry="7" fill="#33373d" stroke="#1a1a1a" stroke-width="4"/>
<polygon points="320,197 384,197 382,305 322,305" fill="#cfd8e0" stroke="#1a1a1a" stroke-width="5" stroke-linejoin="round"/>
<line x1="352" y1="197" x2="352" y2="166" stroke="#1a1a1a" stroke-width="14" stroke-linecap="round"/>
<path d="M 346.0 323 L 316.0 323 L 326.0 455 L 346.0 455 Z" fill="#e9e3d4" stroke="#1a1a1a" stroke-width="4" stroke-linejoin="round"/>
<path d="M 358.0 323 L 388.0 323 L 378.0 455 L 358.0 455 Z" fill="#e9e3d4" stroke="#1a1a1a" stroke-width="4" stroke-linejoin="round"/>
<path d="M 316.0 199 L 388.0 199 L 386.0 323 L 318.0 323 Z" fill="#cfd8e0" stroke="#1a1a1a" stroke-width="4" stroke-linejoin="round"/>
<path d="M 316.0 199 Q 300.0 221 310.0 251" fill="none" stroke="#cfd8e0" stroke-width="7" stroke-linejoin="round"/>
<path d="M 388.0 199 Q 404.0 221 394.0 251" fill="none" stroke="#cfd8e0" stroke-width="7" stroke-linejoin="round"/>
<path d="M 328.0 205 L 376.0 205 L 378.0 307 L 326.0 307 Z" fill="#3a5f7a" stroke="#1a1a1a" stroke-width="4" stroke-linejoin="round"/>
<path d="M 318.0 203 L 352.0 271 L 386.0 203" fill="none" stroke="#f3ede0" stroke-width="4" stroke-linejoin="round"/>
<rect x="323" y="293" width="58" height="12" rx="0" fill="#2e4153" stroke="#1a1a1a" stroke-width="3"/>
<line x1="286" y1="201" x2="296" y2="305" stroke="#ffffff" stroke-width="21" stroke-linecap="round"/>
<line x1="286" y1="201" x2="296" y2="305" stroke="#1a1a1a" stroke-width="14" stroke-linecap="round"/>
<line x1="322" y1="201" x2="312" y2="305" stroke="#ffffff" stroke-width="21" stroke-linecap="round"/>
<line x1="322" y1="201" x2="312" y2="305" stroke="#1a1a1a" stroke-width="14" stroke-linecap="round"/>
<line x1="382" y1="201" x2="392" y2="305" stroke="#ffffff" stroke-width="21" stroke-linecap="round"/>
<line x1="382" y1="201" x2="392" y2="305" stroke="#1a1a1a" stroke-width="14" stroke-linecap="round"/>
<circle id="h3" data-fig="ma" class="skin" cx="352" cy="130" r="40" fill="#f5d6b0" stroke="#1a1a1a" stroke-width="6"/>
<path d="M 312 130 Q 312 80 352 80 Q 392 80 392 130 Q 352 103 312 130 Z" fill="#241c14" stroke="#1a1a1a" stroke-width="3" stroke-linejoin="round"/>
<line x1="322" y1="201" x2="312" y2="305" stroke="#1a1a1a" stroke-width="14" stroke-linecap="round"/>
<line x1="382" y1="201" x2="392" y2="305" stroke="#1a1a1a" stroke-width="14" stroke-linecap="round"/>
<rect x="178" y="112" width="60" height="40" rx="12" fill="#ffffff" stroke="#1a1a1a" stroke-width="3"/>
<circle cx="194" cy="132" r="3" fill="#1a1a1a" stroke="#1a1a1a" stroke-width="0"/>
<circle cx="208" cy="132" r="3" fill="#1a1a1a" stroke="#1a1a1a" stroke-width="0"/>
<circle cx="222" cy="132" r="3" fill="#1a1a1a" stroke="#1a1a1a" stroke-width="0"/>
<rect x="266" y="95" width="76" height="50" rx="12" fill="#ffffff" stroke="#1a1a1a" stroke-width="3"/>
<circle cx="290" cy="120" r="3" fill="#1a1a1a" stroke="#1a1a1a" stroke-width="0"/>
<circle cx="304" cy="120" r="3" fill="#1a1a1a" stroke="#1a1a1a" stroke-width="0"/>
<circle cx="318" cy="120" r="3" fill="#1a1a1a" stroke="#1a1a1a" stroke-width="0"/>
<line x1="238" y1="126" x2="266" y2="122" stroke="#1a1a1a" stroke-width="12.0" stroke-linecap="round"/><line x1="266" y1="122" x2="250" y2="116" stroke="#1a1a1a" stroke-width="12.0" stroke-linecap="round"/><line x1="266" y1="122" x2="252" y2="132" stroke="#1a1a1a" stroke-width="12.0" stroke-linecap="round"/><line x1="238" y1="126" x2="266" y2="122" stroke="#e0473c" stroke-width="6.5" stroke-linecap="round"/>
<line x1="266" y1="122" x2="252" y2="132" stroke="#e0473c" stroke-width="6.5" stroke-linecap="round"/>
<line x1="266" y1="122" x2="250" y2="116" stroke="#e0473c" stroke-width="6.5" stroke-linecap="round"/>
<path d="M 387 86 q 0 -26 24 -26 q 25 0 25 23 q 0 17 -19 23 q -6 3 -6 13" fill="none" stroke="#e0473c" stroke-width="10" stroke-linejoin="round"/>
<circle cx="411" cy="137" r="6" fill="#e0473c" stroke="#1a1a1a" stroke-width="0"/>
</svg>
