<svg data-cover="arms:covered" xmlns="http://www.w3.org/2000/svg" viewBox="0 0 512 512" data-copyright="© 2026 Sensory App House"><!--SAH-COPYRIGHT © 2026 Sensory App House. All rights reserved.--><metadata id="sah-copyright"><rdf:RDF xmlns:rdf="http://www.w3.org/1999/02/22-rdf-syntax-ns#" xmlns:dc="http://purl.org/dc/elements/1.1/" xmlns:cc="http://creativecommons.org/ns#"><cc:Work rdf:about=""><dc:rights><cc:Agent><dc:title>© 2026 Sensory App House. All rights reserved.</dc:title></cc:Agent></dc:rights><dc:creator><cc:Agent><dc:title>Sensory App House (PiCom)</dc:title></cc:Agent></dc:creator><dc:date>2026</dc:date></cc:Work></rdf:RDF></metadata><metadata id="sah">{"v":1,"fig":[["h1","fa"],["h2","ma"]]}</metadata><g data-fit="1" transform="translate(256 256) scale(1.1553) translate(-273.00 -269.00)">
<line x1="137" y1="305" x2="128" y2="455" stroke="#39425c" stroke-width="16" stroke-linecap="round"/>
<line x1="163" y1="305" x2="172" y2="455" stroke="#39425c" stroke-width="16" stroke-linecap="round"/>
<ellipse cx="128" cy="457" rx="13" ry="7" fill="#33373d" stroke="#1a1a1a" stroke-width="0"/>
<ellipse cx="172" cy="457" rx="13" ry="7" fill="#33373d" stroke="#1a1a1a" stroke-width="0"/>
<polygon points="118,197 182,197 180,305 120,305" fill="#3fae5a" stroke="#1a1a1a" stroke-width="5" stroke-linejoin="round"/>
<line x1="150" y1="197" x2="150" y2="166" stroke="#1a1a1a" stroke-width="14" stroke-linecap="round"/>
<path d="M 103 184 L 103 128 Q 103 76 150 76 Q 197 76 197 128 L 197 184 L 184 184 L 184 130 Q 184 96 150 96 Q 116 96 116 130 L 116 184 Z" fill="#5a3a1f" stroke="#1a1a1a" stroke-width="3" stroke-linejoin="round"/>
<path d="M 120.0 223 L 180.0 223 L 212.0 455 Q 150.0 465 88.0 455 Z" fill="#6db5d8" stroke="#1a1a1a" stroke-width="4" stroke-linejoin="round"/>
<path d="M 114.0 199 L 186.0 199 L 180.0 229 L 120.0 229 Z" fill="#f3ede0" stroke="#1a1a1a" stroke-width="4" stroke-linejoin="round"/>
<path d="M 116.0 203 L 150.0 271 L 184.0 203" fill="none" stroke="#d24b6a" stroke-width="4" stroke-linejoin="round"/>
<path d="M 112.0 201 Q 108.0 219 116.0 227" fill="none" stroke="#f3ede0" stroke-width="4" stroke-linejoin="round"/>
<path d="M 188.0 201 Q 192.0 219 184.0 227" fill="none" stroke="#f3ede0" stroke-width="4" stroke-linejoin="round"/>
<line x1="156" y1="227" x2="152" y2="231" stroke="#c0392b" stroke-width="6" stroke-linecap="round"/>
<line x1="156" y1="227" x2="162" y2="233" stroke="#c0392b" stroke-width="6" stroke-linecap="round"/>
<line x1="120" y1="201" x2="104" y2="305" stroke="#ffffff" stroke-width="21" stroke-linecap="round"/>
<line x1="120" y1="201" x2="104" y2="305" stroke="#1a1a1a" stroke-width="14" stroke-linecap="round"/>
<line x1="180" y1="201" x2="196" y2="305" stroke="#ffffff" stroke-width="21" stroke-linecap="round"/>
<line x1="180" y1="201" x2="196" y2="305" stroke="#1a1a1a" stroke-width="14" stroke-linecap="round"/>
<circle id="h1" data-fig="fa" class="skin" cx="150" cy="130" r="40" fill="#f5d6b0" stroke="#1a1a1a" stroke-width="6"/>
<path d="M 112 96 Q 150 82 188 96 Q 150 92 112 96 Z" fill="#5a3a1f" stroke="#1a1a1a" stroke-width="3" stroke-linejoin="round"/>
<path d="M 156.0 227 l -14 -8 l 0 12 Z" fill="#c0392b" stroke="#1a1a1a" stroke-width="2" stroke-linejoin="round"/>
<path d="M 156.0 227 l 14 -8 l 0 12 Z" fill="#c0392b" stroke="#1a1a1a" stroke-width="2" stroke-linejoin="round"/>
<line x1="138" y1="148" x2="162" y2="148" stroke="#1a1a1a" stroke-width="4" stroke-linecap="round"/>
<line x1="120" y1="201" x2="104" y2="305" stroke="#1a1a1a" stroke-width="14" stroke-linecap="round"/>
<line x1="180" y1="201" x2="196" y2="305" stroke="#1a1a1a" stroke-width="14" stroke-linecap="round"/>
<line x1="322" y1="305" x2="296" y2="455" stroke="#39425c" stroke-width="16" stroke-linecap="round"/>
<line x1="344" y1="305" x2="374" y2="455" stroke="#39425c" stroke-width="16" stroke-linecap="round"/>
<ellipse cx="296" cy="457" rx="13" ry="7" fill="#33373d" stroke="#1a1a1a" stroke-width="0"/>
<ellipse cx="378" cy="457" rx="13" ry="7" fill="#33373d" stroke="#1a1a1a" stroke-width="0"/>
<polygon points="312,197 372,197 362.0,305 302.0,305" fill="#cfd8e0" stroke="#1a1a1a" stroke-width="5" stroke-linejoin="round"/>
<line x1="342" y1="197" x2="350" y2="166" stroke="#1a1a1a" stroke-width="14" stroke-linecap="round"/>
<path d="M 316.0 197 L 384.0 197 L 382.0 335 L 318.0 335 Z" fill="#cfd8e0" stroke="#1a1a1a" stroke-width="4"/>
<path d="M 314.0 199 Q 298.0 221 308.0 251" fill="none" stroke="#cfd8e0" stroke-width="7" stroke-linejoin="round"/>
<path d="M 386.0 199 Q 402.0 221 392.0 251" fill="none" stroke="#cfd8e0" stroke-width="7" stroke-linejoin="round"/>
<path d="M 326.0 205 L 374.0 205 L 376.0 307 L 324.0 307 Z" fill="#3a5f7a" stroke="#1a1a1a" stroke-width="4" stroke-linejoin="round"/>
<path d="M 316.0 203 L 350.0 271 L 384.0 203" fill="none" stroke="#f3ede0" stroke-width="4" stroke-linejoin="round"/>
<rect x="321" y="293" width="58" height="12" rx="0" fill="#2e4153" stroke="#1a1a1a" stroke-width="3"/>
<line x1="314" y1="201" x2="284" y2="311" stroke="#ffffff" stroke-width="21" stroke-linecap="round"/>
<line x1="314" y1="201" x2="284" y2="311" stroke="#1a1a1a" stroke-width="14" stroke-linecap="round"/>
<line x1="370" y1="201" x2="382" y2="295" stroke="#ffffff" stroke-width="21" stroke-linecap="round"/>
<line x1="370" y1="201" x2="382" y2="295" stroke="#1a1a1a" stroke-width="14" stroke-linecap="round"/>
<circle id="h2" data-fig="ma" class="skin" cx="350" cy="130" r="40" fill="#f5d6b0" stroke="#1a1a1a" stroke-width="6"/>
<path d="M 310.0 130 Q 310.0 80 350.0 80 Q 390.0 80 390.0 130 Q 350.0 103 310.0 130 Z" fill="#241c14" stroke="#1a1a1a" stroke-width="3" stroke-linejoin="round"/>
<line x1="314" y1="201" x2="284" y2="311" stroke="#1a1a1a" stroke-width="14" stroke-linecap="round"/>
<line x1="370" y1="201" x2="382" y2="295" stroke="#1a1a1a" stroke-width="14" stroke-linecap="round"/>
<line x1="444" y1="269" x2="424" y2="253" stroke="#1a1a1a" stroke-width="16.0" stroke-linecap="round"/><line x1="392" y1="269" x2="444" y2="269" stroke="#1a1a1a" stroke-width="16.0" stroke-linecap="round"/><line x1="444" y1="269" x2="424" y2="285" stroke="#1a1a1a" stroke-width="16.0" stroke-linecap="round"/><line x1="392" y1="269" x2="444" y2="269" stroke="#8a8f98" stroke-width="10.5" stroke-linecap="round"/>
<line x1="444" y1="269" x2="424" y2="253" stroke="#8a8f98" stroke-width="10.5" stroke-linecap="round"/>
<line x1="444" y1="269" x2="424" y2="285" stroke="#8a8f98" stroke-width="10.5" stroke-linecap="round"/>
<line x1="252" y1="335" x2="282" y2="335" stroke="#9aa7b5" stroke-width="5" stroke-linecap="round"/>
<line x1="258" y1="313" x2="288" y2="313" stroke="#9aa7b5" stroke-width="5" stroke-linecap="round"/>
<line x1="252" y1="357" x2="282" y2="357" stroke="#9aa7b5" stroke-width="5" stroke-linecap="round"/>
<polygon points="214,150 228,144 226,128 238,142 256,136 244,150 256,162 240,158 232,172 226,156" fill="#f0c419" stroke="#1a1a1a" stroke-width="3" stroke-linejoin="round"/>
<line x1="229" y1="144" x2="234" y2="153" stroke="#e0473c" stroke-width="4" stroke-linecap="round"/>
<line x1="242" y1="144" x2="237" y2="153" stroke="#e0473c" stroke-width="4" stroke-linecap="round"/>
</g></svg>
