<svg data-cover="arms:covered" xmlns="http://www.w3.org/2000/svg" viewBox="28.90 21.22 471.27 471.27"><metadata id="sah">{"v":1,"fig":[["h1","fa"],["h2","ma"]]}</metadata>
<path d="M 128.0 197.0 L 188.0 197.0 L 188.0 287.0 L 214.0 389.0 L 102.0 389.0 L 128.0 287.0 Z" fill="#2f8f7a" stroke="#1a1a1a" stroke-width="5" stroke-linejoin="round"/>
<line x1="140" y1="389" x2="134" y2="455" stroke="#1a1a1a" stroke-width="13.0" stroke-linecap="round"/>
<line x1="176" y1="389" x2="182" y2="455" stroke="#1a1a1a" stroke-width="13.0" stroke-linecap="round"/>
<ellipse cx="134" cy="457" rx="13" ry="7" fill="#33373d"/>
<ellipse cx="182" cy="457" rx="13" ry="7" fill="#33373d"/>
<line x1="128" y1="199" x2="130" y2="243" stroke="#1a1a1a" stroke-width="13.0" stroke-linecap="round"/>
<line x1="188" y1="199" x2="186" y2="243" stroke="#1a1a1a" stroke-width="13.0" stroke-linecap="round"/>
<line x1="158" y1="197" x2="158" y2="166" stroke="#1a1a1a" stroke-width="13.0" stroke-linecap="round"/>
<path d="M 111.0 184.0 L 111.0 128.0 Q 111.0 76.0 158 76.0 Q 205.0 76.0 205.0 128.0 L 205.0 184.0 L 192.0 184.0 L 192.0 130.0 Q 192.0 96.0 158 96.0 Q 124.0 96.0 124.0 130.0 L 124.0 184.0 Z" fill="#5a3a1f" stroke="#1a1a1a" stroke-width="3" stroke-linejoin="round"/>
<path d="M 128.0 223 L 188.0 223 L 220.0 455 Q 158.0 465 96.0 455 Z" fill="#6db5d8" stroke="#1a1a1a" stroke-width="4" stroke-linejoin="round"/>
<path d="M 122.0 199 L 194.0 199 L 188.0 229 L 128.0 229 Z" fill="#f3ede0" stroke="#1a1a1a" stroke-width="4" stroke-linejoin="round"/>
<path d="M 124.0 203 L 158.0 271 L 192.0 203" fill="none" stroke="#d24b6a" stroke-width="4" stroke-linejoin="round"/>
<path d="M 120.0 201 Q 116.0 219 124.0 227" fill="none" stroke="#f3ede0" stroke-width="4" stroke-linejoin="round"/>
<path d="M 196.0 201 Q 200.0 219 192.0 227" fill="none" stroke="#f3ede0" stroke-width="4" stroke-linejoin="round"/>
<line x1="164" y1="227" x2="160" y2="231" stroke="#c0392b" stroke-width="6" stroke-linecap="round"/>
<line x1="164" y1="227" x2="170" y2="233" stroke="#c0392b" stroke-width="6" stroke-linecap="round"/>
<line x1="128" y1="199" x2="130" y2="243" stroke="#ffffff" stroke-width="20" stroke-linecap="round"/>
<line x1="128" y1="199" x2="130" y2="243" stroke="#1a1a1a" stroke-width="13.0" stroke-linecap="round"/>
<line x1="188" y1="199" x2="186" y2="243" stroke="#ffffff" stroke-width="20" stroke-linecap="round"/>
<line x1="188" y1="199" x2="186" y2="243" stroke="#1a1a1a" stroke-width="13.0" stroke-linecap="round"/>
<circle id="h1" data-fig="fa" class="skin" cx="158" cy="130" r="40" fill="#f5d6b0" stroke="#1a1a1a" stroke-width="6"/>
<path d="M 120.0 96.0 Q 158 82.0 196.0 96.0 Q 158 92.0 120.0 96.0 Z" fill="#5a3a1f" stroke="#1a1a1a" stroke-width="3" stroke-linejoin="round"/>
<path d="M 164.0 227 l -14 -8 l 0 12 Z" fill="#c0392b" stroke="#1a1a1a" stroke-width="2" stroke-linejoin="round"/>
<path d="M 164.0 227 l 14 -8 l 0 12 Z" fill="#c0392b" stroke="#1a1a1a" stroke-width="2" stroke-linejoin="round"/>
<circle cx="145" cy="127" r="4" fill="#1a1a1a" stroke="#1a1a1a" stroke-width="0"/>
<circle cx="171" cy="127" r="4" fill="#1a1a1a" stroke="#1a1a1a" stroke-width="0"/>
<path d="M 144.0 144.0 Q 158 160.0 172.0 144.0" fill="none" stroke="#1a1a1a" stroke-width="4" stroke-linejoin="round"/>
<rect x="128" y="203" width="60" height="88" rx="6" fill="#ffffff" stroke="#1a1a1a" stroke-width="4"/>
<rect x="146" y="193" width="24" height="14" rx="3" fill="#9aa7b3" stroke="#1a1a1a" stroke-width="3"/>
<line x1="140" y1="225" x2="174" y2="225" stroke="#9aa7b5" stroke-width="3" stroke-linecap="round"/>
<line x1="140" y1="242" x2="174" y2="242" stroke="#9aa7b5" stroke-width="3" stroke-linecap="round"/>
<line x1="140" y1="259" x2="174" y2="259" stroke="#9aa7b5" stroke-width="3" stroke-linecap="round"/>
<line x1="357" y1="303" x2="348" y2="455" stroke="#39425c" stroke-width="16.0" stroke-linecap="round"/>
<line x1="387" y1="303" x2="396" y2="455" stroke="#39425c" stroke-width="16.0" stroke-linecap="round"/>
<ellipse cx="348" cy="457" rx="13" ry="7" fill="#33373d"/>
<ellipse cx="396" cy="457" rx="13" ry="7" fill="#33373d"/>
<polygon points="340,197 404,197 402,305 342,305" fill="#5a78b5" stroke="#1a1a1a" stroke-width="5" stroke-linejoin="round"/>
<line x1="342" y1="199" x2="322" y2="305" stroke="#1a1a1a" stroke-width="13.0" stroke-linecap="round"/>
<line x1="402" y1="199" x2="422" y2="305" stroke="#1a1a1a" stroke-width="13.0" stroke-linecap="round"/>
<line x1="372" y1="197" x2="372" y2="166" stroke="#1a1a1a" stroke-width="13.0" stroke-linecap="round"/>
<path d="M 366.0 323 L 336.0 323 L 346.0 455 L 366.0 455 Z" fill="#e9e3d4" stroke="#1a1a1a" stroke-width="4" stroke-linejoin="round"/>
<path d="M 378.0 323 L 408.0 323 L 398.0 455 L 378.0 455 Z" fill="#e9e3d4" stroke="#1a1a1a" stroke-width="4" stroke-linejoin="round"/>
<path d="M 336.0 199 L 408.0 199 L 406.0 323 L 338.0 323 Z" fill="#cfd8e0" stroke="#1a1a1a" stroke-width="4" stroke-linejoin="round"/>
<path d="M 336.0 199 Q 320.0 221 330.0 251" fill="none" stroke="#cfd8e0" stroke-width="7" stroke-linejoin="round"/>
<path d="M 408.0 199 Q 424.0 221 414.0 251" fill="none" stroke="#cfd8e0" stroke-width="7" stroke-linejoin="round"/>
<path d="M 348.0 205 L 396.0 205 L 398.0 307 L 346.0 307 Z" fill="#3a5f7a" stroke="#1a1a1a" stroke-width="4" stroke-linejoin="round"/>
<path d="M 338.0 203 L 372.0 271 L 406.0 203" fill="none" stroke="#f3ede0" stroke-width="4" stroke-linejoin="round"/>
<rect x="343" y="293" width="58" height="12" rx="0" fill="#2e4153" stroke="#1a1a1a" stroke-width="3"/>
<line x1="342" y1="199" x2="322" y2="305" stroke="#ffffff" stroke-width="20" stroke-linecap="round"/>
<line x1="342" y1="199" x2="322" y2="305" stroke="#1a1a1a" stroke-width="13.0" stroke-linecap="round"/>
<line x1="402" y1="199" x2="422" y2="305" stroke="#ffffff" stroke-width="20" stroke-linecap="round"/>
<line x1="402" y1="199" x2="422" y2="305" stroke="#1a1a1a" stroke-width="13.0" stroke-linecap="round"/>
<circle id="h2" data-fig="ma" class="skin" cx="372" cy="130" r="40" fill="#f5d6b0" stroke="#1a1a1a" stroke-width="6"/>
<path d="M 332.0 130.0 Q 332.0 80.0 372 80.0 Q 412.0 80.0 412.0 130.0 Q 372 103.0 332.0 130.0 Z" fill="#241c14" stroke="#1a1a1a" stroke-width="3" stroke-linejoin="round"/>
<polygon points="376,148 414,220 344,160" fill="#ffffff" stroke="#1a1a1a" stroke-width="4" stroke-linejoin="round"/>
<ellipse cx="300" cy="116" rx="92" ry="64" fill="#ffffff" stroke="#1a1a1a" stroke-width="4"/>
<circle cx="274" cy="116" r="7" fill="#1a1a1a" stroke="#1a1a1a" stroke-width="0"/>
<circle cx="300" cy="116" r="7" fill="#1a1a1a" stroke="#1a1a1a" stroke-width="0"/>
<circle cx="326" cy="116" r="7" fill="#1a1a1a" stroke="#1a1a1a" stroke-width="0"/>
<path d="M 256 264 C 223 236 223 269 256 287 C 289 269 289 236 256 264 Z" fill="#e0473c" stroke="#1a1a1a" stroke-width="3" stroke-linejoin="round"/>
<path d="M 296 238 Q 314 254 296 270" fill="none" stroke="#3fae5a" stroke-width="5" stroke-linejoin="round"/>
<path d="M 310 230 Q 336 254 310 278" fill="none" stroke="#3fae5a" stroke-width="5" stroke-linejoin="round"/>
</svg>
