<svg data-cover="arms:covered" xmlns="http://www.w3.org/2000/svg" viewBox="42.67 52.91 426.67 426.67"><metadata id="sah">{"v":1,"fig":[["h1","ma"]]}</metadata>
<polygon points="106,452 406,452 374,418 138,418" fill="#3fae5a" stroke="#1a1a1a" stroke-width="4" stroke-linejoin="round"/>
<polygon points="138,418 374,418 348,394 164,394" fill="#2f9e4a" stroke="#1a1a1a" stroke-width="4" stroke-linejoin="round"/>
<line x1="241" y1="343" x2="216" y2="345" stroke="#39425c" stroke-width="16.0" stroke-linecap="round"/>
<line x1="216" y1="345" x2="216" y2="415" stroke="#39425c" stroke-width="16.0" stroke-linecap="round"/>
<line x1="271" y1="343" x2="296" y2="345" stroke="#39425c" stroke-width="16.0" stroke-linecap="round"/>
<line x1="296" y1="345" x2="296" y2="415" stroke="#39425c" stroke-width="16.0" stroke-linecap="round"/>
<ellipse cx="216" cy="417" rx="13" ry="7" fill="#33373d"/>
<ellipse cx="296" cy="417" rx="13" ry="7" fill="#33373d"/>
<polygon points="224,197 288,197 286,345 226,345" fill="#cfd8e0" stroke="#1a1a1a" stroke-width="5" stroke-linejoin="round"/>
<line x1="226" y1="199" x2="194" y2="305" stroke="#1a1a1a" stroke-width="13.0" stroke-linecap="round"/>
<line x1="286" y1="199" x2="318" y2="305" stroke="#1a1a1a" stroke-width="13.0" stroke-linecap="round"/>
<line x1="256" y1="197" x2="256" y2="166" stroke="#1a1a1a" stroke-width="13.0" stroke-linecap="round"/>
<path d="M 222.0 197 L 290.0 197 L 288.0 335 L 224.0 335 Z" fill="#cfd8e0" stroke="#1a1a1a" stroke-width="4"/>
<path d="M 220.0 199 Q 204.0 221 214.0 251" fill="none" stroke="#cfd8e0" stroke-width="7" stroke-linejoin="round"/>
<path d="M 292.0 199 Q 308.0 221 298.0 251" fill="none" stroke="#cfd8e0" stroke-width="7" stroke-linejoin="round"/>
<path d="M 232.0 205 L 280.0 205 L 282.0 307 L 230.0 307 Z" fill="#3a5f7a" stroke="#1a1a1a" stroke-width="4" stroke-linejoin="round"/>
<path d="M 222.0 203 L 256.0 271 L 290.0 203" fill="none" stroke="#f3ede0" stroke-width="4" stroke-linejoin="round"/>
<rect x="227" y="293" width="58" height="12" rx="0" fill="#2e4153" stroke="#1a1a1a" stroke-width="3"/>
<line x1="226" y1="199" x2="194" y2="305" stroke="#ffffff" stroke-width="20" stroke-linecap="round"/>
<line x1="226" y1="199" x2="194" y2="305" stroke="#1a1a1a" stroke-width="13.0" stroke-linecap="round"/>
<line x1="286" y1="199" x2="318" y2="305" stroke="#ffffff" stroke-width="20" stroke-linecap="round"/>
<line x1="286" y1="199" x2="318" y2="305" stroke="#1a1a1a" stroke-width="13.0" stroke-linecap="round"/>
<circle id="h1" data-fig="ma" class="skin" cx="256" cy="130" r="40" fill="#f5d6b0" stroke="#1a1a1a" stroke-width="6"/>
<path d="M 216.0 130.0 Q 216.0 80.0 256 80.0 Q 296.0 80.0 296.0 130.0 Q 256 103.0 216.0 130.0 Z" fill="#241c14" stroke="#1a1a1a" stroke-width="3" stroke-linejoin="round"/>
</svg>
