<svg data-cover="arms:covered" xmlns="http://www.w3.org/2000/svg" viewBox="0 0 512 512" data-copyright="© 2026 Sensory App House"><!--SAH-COPYRIGHT © 2026 Sensory App House. All rights reserved.--><metadata id="sah-copyright"><rdf:RDF xmlns:rdf="http://www.w3.org/1999/02/22-rdf-syntax-ns#" xmlns:dc="http://purl.org/dc/elements/1.1/" xmlns:cc="http://creativecommons.org/ns#"><cc:Work rdf:about=""><dc:rights><cc:Agent><dc:title>© 2026 Sensory App House. All rights reserved.</dc:title></cc:Agent></dc:rights><dc:creator><cc:Agent><dc:title>Sensory App House (PiCom)</dc:title></cc:Agent></dc:creator><dc:date>2026</dc:date></cc:Work></rdf:RDF></metadata><metadata id="sah">{"v":1,"fig":[["h1","ma"]]}</metadata><g data-fit="1" transform="translate(256 256) scale(1.0936) translate(-221.00 -269.00)">
<g transform="translate(0.7,54.0) scale(0.959)"><!-- gift box body -->
  <rect x="30" y="210" width="220" height="160" rx="10" fill="#ef5b8c" stroke="#1a1a1a" stroke-width="5" stroke-linejoin="round" />
  <!-- lid -->
  <rect x="18" y="170" width="244" height="50" rx="10" fill="#f78ab0" stroke="#1a1a1a" stroke-width="5" stroke-linejoin="round" />
  <!-- vertical ribbon -->
  <rect x="118" y="170" width="44" height="200" fill="#f8c531" stroke="#1a1a1a" stroke-width="5" />
  <!-- horizontal ribbon -->
  <rect x="30" y="262" width="220" height="40" fill="#f8c531" stroke="#1a1a1a" stroke-width="5" />
  <!-- bow loops -->
  <path d="M140 168 Q96 118 110 90 Q132 70 150 100 Q156 128 150 165 Z" fill="#f8c531" stroke="#1a1a1a" stroke-width="6" stroke-linejoin="round" />
  <path d="M140 168 Q184 118 170 90 Q148 70 130 100 Q124 128 130 165 Z" fill="#f8c531" stroke="#1a1a1a" stroke-width="6" stroke-linejoin="round" />
  <ellipse cx="140" cy="168" rx="22" ry="16" fill="#f8c531" stroke="#1a1a1a" stroke-width="6" /></g>
<path d="M 338.0 197.0 L 398.0 197.0 L 398.0 287.0 L 424.0 389.0 L 312.0 389.0 L 338.0 287.0 Z" fill="#d6529e" stroke="#1a1a1a" stroke-width="5" stroke-linejoin="round"/>
<line x1="350" y1="389" x2="344" y2="455" stroke="#1a1a1a" stroke-width="13.0" stroke-linecap="round"/>
<line x1="386" y1="389" x2="392" y2="455" stroke="#1a1a1a" stroke-width="13.0" stroke-linecap="round"/>
<ellipse cx="344" cy="457" rx="13" ry="7" fill="#33373d"/>
<ellipse cx="392" cy="457" rx="13" ry="7" fill="#33373d"/>
<line x1="338" y1="199" x2="318" y2="305" stroke="#1a1a1a" stroke-width="13.0" stroke-linecap="round"/>
<line x1="398" y1="199" x2="418" y2="305" stroke="#1a1a1a" stroke-width="13.0" stroke-linecap="round"/>
<line x1="368" y1="197" x2="368" y2="166" stroke="#1a1a1a" stroke-width="13.0" stroke-linecap="round"/>
<path d="M 321.0 184.0 L 321.0 128.0 Q 321.0 76.0 368 76.0 Q 415.0 76.0 415.0 128.0 L 415.0 184.0 L 402.0 184.0 L 402.0 130.0 Q 402.0 96.0 368 96.0 Q 334.0 96.0 334.0 130.0 L 334.0 184.0 Z" fill="#5a3a1f" stroke="#1a1a1a" stroke-width="3" stroke-linejoin="round"/>
<path d="M 362.0 323 L 332.0 323 L 342.0 455 L 362.0 455 Z" fill="#e9e3d4" stroke="#1a1a1a" stroke-width="4" stroke-linejoin="round"/>
<path d="M 374.0 323 L 404.0 323 L 394.0 455 L 374.0 455 Z" fill="#e9e3d4" stroke="#1a1a1a" stroke-width="4" stroke-linejoin="round"/>
<path d="M 332.0 199 L 404.0 199 L 402.0 323 L 334.0 323 Z" fill="#cfd8e0" stroke="#1a1a1a" stroke-width="4" stroke-linejoin="round"/>
<path d="M 332.0 199 Q 316.0 221 326.0 251" fill="none" stroke="#cfd8e0" stroke-width="7" stroke-linejoin="round"/>
<path d="M 404.0 199 Q 420.0 221 410.0 251" fill="none" stroke="#cfd8e0" stroke-width="7" stroke-linejoin="round"/>
<path d="M 344.0 205 L 392.0 205 L 394.0 307 L 342.0 307 Z" fill="#3a5f7a" stroke="#1a1a1a" stroke-width="4" stroke-linejoin="round"/>
<path d="M 334.0 203 L 368.0 271 L 402.0 203" fill="none" stroke="#f3ede0" stroke-width="4" stroke-linejoin="round"/>
<rect x="339" y="293" width="58" height="12" rx="0" fill="#2e4153" stroke="#1a1a1a" stroke-width="3"/>
<line x1="338" y1="199" x2="318" y2="305" stroke="#ffffff" stroke-width="20" stroke-linecap="round"/>
<line x1="338" y1="199" x2="318" y2="305" stroke="#1a1a1a" stroke-width="13.0" stroke-linecap="round"/>
<line x1="398" y1="199" x2="418" y2="305" stroke="#ffffff" stroke-width="20" stroke-linecap="round"/>
<line x1="398" y1="199" x2="418" y2="305" stroke="#1a1a1a" stroke-width="13.0" stroke-linecap="round"/>
<circle id="h1" data-fig="ma" cx="368" cy="130" r="40" fill="#f5d6b0" stroke="#1a1a1a" stroke-width="6" class="skin"/>
<path d="M 330.0 96.0 Q 368 82.0 406.0 96.0 Q 368 92.0 330.0 96.0 Z" fill="#241c14" stroke="#1a1a1a" stroke-width="3" stroke-linejoin="round"/>
</g></svg>
