<svg data-cover="arms:covered" xmlns="http://www.w3.org/2000/svg" viewBox="0 0 512 512" data-copyright="© 2026 Sensory App House"><!--SAH-COPYRIGHT © 2026 Sensory App House. All rights reserved.--><metadata id="sah-copyright"><rdf:RDF xmlns:rdf="http://www.w3.org/1999/02/22-rdf-syntax-ns#" xmlns:dc="http://purl.org/dc/elements/1.1/" xmlns:cc="http://creativecommons.org/ns#"><cc:Work rdf:about=""><dc:rights><cc:Agent><dc:title>© 2026 Sensory App House. All rights reserved.</dc:title></cc:Agent></dc:rights><dc:creator><cc:Agent><dc:title>Sensory App House (PiCom)</dc:title></cc:Agent></dc:creator><dc:date>2026</dc:date></cc:Work></rdf:RDF></metadata><metadata id="sah">{"v":1,"fig":[["h1","ma"],["h2","fc"],["h3","ma"]]}</metadata><g data-fit="1" transform="translate(256 256) scale(1.1349) translate(-262.00 -265.50)">
<line x1="115" y1="303" x2="106" y2="455" stroke="#39425c" stroke-width="16.0" stroke-linecap="round"/>
<line x1="145" y1="303" x2="154" y2="455" stroke="#39425c" stroke-width="16.0" stroke-linecap="round"/>
<ellipse cx="106" cy="457" rx="13" ry="7" fill="#33373d"/>
<ellipse cx="154" cy="457" rx="13" ry="7" fill="#33373d"/>
<polygon points="98,197 162,197 160,305 100,305" fill="#cfd8e0" stroke="#1a1a1a" stroke-width="5" stroke-linejoin="round"/>
<line x1="100" y1="199" x2="80" y2="305" stroke="#1a1a1a" stroke-width="13.0" stroke-linecap="round"/>
<line x1="160" y1="199" x2="180" y2="305" stroke="#1a1a1a" stroke-width="13.0" stroke-linecap="round"/>
<line x1="130" y1="197" x2="130" y2="166" stroke="#1a1a1a" stroke-width="13.0" stroke-linecap="round"/>
<path d="M 124.0 323 L 94.0 323 L 104.0 455 L 124.0 455 Z" fill="#e9e3d4" stroke="#1a1a1a" stroke-width="4" stroke-linejoin="round"/>
<path d="M 136.0 323 L 166.0 323 L 156.0 455 L 136.0 455 Z" fill="#e9e3d4" stroke="#1a1a1a" stroke-width="4" stroke-linejoin="round"/>
<path d="M 94.0 199 L 166.0 199 L 164.0 323 L 96.0 323 Z" fill="#cfd8e0" stroke="#1a1a1a" stroke-width="4" stroke-linejoin="round"/>
<path d="M 94.0 199 Q 78.0 221 88.0 251" fill="none" stroke="#cfd8e0" stroke-width="7" stroke-linejoin="round"/>
<path d="M 166.0 199 Q 182.0 221 172.0 251" fill="none" stroke="#cfd8e0" stroke-width="7" stroke-linejoin="round"/>
<path d="M 106.0 205 L 154.0 205 L 156.0 307 L 104.0 307 Z" fill="#3a5f7a" stroke="#1a1a1a" stroke-width="4" stroke-linejoin="round"/>
<path d="M 96.0 203 L 130.0 271 L 164.0 203" fill="none" stroke="#f3ede0" stroke-width="4" stroke-linejoin="round"/>
<rect x="101" y="293" width="58" height="12" rx="0" fill="#2e4153" stroke="#1a1a1a" stroke-width="3"/>
<line x1="100" y1="199" x2="80" y2="305" stroke="#ffffff" stroke-width="20" stroke-linecap="round"/>
<line x1="100" y1="199" x2="80" y2="305" stroke="#1a1a1a" stroke-width="13.0" stroke-linecap="round"/>
<line x1="160" y1="199" x2="180" y2="305" stroke="#ffffff" stroke-width="20" stroke-linecap="round"/>
<line x1="160" y1="199" x2="180" y2="305" stroke="#1a1a1a" stroke-width="13.0" stroke-linecap="round"/>
<circle id="h1" data-fig="ma" cx="130" cy="130" r="40" fill="#f5d6b0" stroke="#1a1a1a" stroke-width="6" class="skin"/>
<path d="M 90.0 130.0 Q 90.0 80.0 130 80.0 Q 170.0 80.0 170.0 130.0 Q 130 103.0 90.0 130.0 Z" fill="#241c14" stroke="#1a1a1a" stroke-width="3" stroke-linejoin="round"/>
<path d="M 240.4 269.24 L 283.6 269.24 L 283.6 334.04 L 302.32 407.48 L 221.68 407.48 L 240.4 334.04 Z" fill="#f5a623" stroke="#1a1a1a" stroke-width="5" stroke-linejoin="round"/>
<line x1="249" y1="407" x2="245" y2="455" stroke="#1a1a1a" stroke-width="9.36" stroke-linecap="round"/>
<line x1="275" y1="407" x2="279" y2="455" stroke="#1a1a1a" stroke-width="9.36" stroke-linecap="round"/>
<ellipse cx="245" cy="457" rx="9" ry="5" fill="#33373d"/>
<ellipse cx="279" cy="457" rx="9" ry="5" fill="#33373d"/>
<line x1="240" y1="271" x2="226" y2="347" stroke="#1a1a1a" stroke-width="9.36" stroke-linecap="round"/>
<line x1="284" y1="271" x2="298" y2="347" stroke="#1a1a1a" stroke-width="9.36" stroke-linecap="round"/>
<line x1="262" y1="269" x2="262" y2="246" stroke="#1a1a1a" stroke-width="9.36" stroke-linecap="round"/>
<path d="M 226.2 263.8 L 226.2 219.0 Q 226.2 178.2 262 178.2 Q 297.8 178.2 297.8 219.0 L 297.8 263.8 L 284.8 263.8 L 284.8 221.0 Q 284.8 198.2 262 198.2 Q 239.2 198.2 239.2 221.0 L 239.2 263.8 Z" fill="#5a3a1f" stroke="#1a1a1a" stroke-width="3" stroke-linejoin="round"/>
<circle id="h2" data-fig="fc" cx="262" cy="221" r="29" fill="#f5d6b0" stroke="#1a1a1a" stroke-width="6" class="skin"/>
<path d="M 235.2 198.2 Q 262 184.2 288.8 198.2 Q 262 194.2 235.2 198.2 Z" fill="#241c14" stroke="#1a1a1a" stroke-width="3" stroke-linejoin="round"/>
<line x1="379" y1="303" x2="370" y2="455" stroke="#39425c" stroke-width="16.0" stroke-linecap="round"/>
<line x1="409" y1="303" x2="418" y2="455" stroke="#39425c" stroke-width="16.0" stroke-linecap="round"/>
<ellipse cx="370" cy="457" rx="13" ry="7" fill="#33373d"/>
<ellipse cx="418" cy="457" rx="13" ry="7" fill="#33373d"/>
<polygon points="362,197 426,197 424,305 364,305" fill="#cfd8e0" stroke="#1a1a1a" stroke-width="5" stroke-linejoin="round"/>
<line x1="364" y1="199" x2="344" y2="305" stroke="#1a1a1a" stroke-width="13.0" stroke-linecap="round"/>
<line x1="424" y1="199" x2="444" y2="305" stroke="#1a1a1a" stroke-width="13.0" stroke-linecap="round"/>
<line x1="394" y1="197" x2="394" y2="166" stroke="#1a1a1a" stroke-width="13.0" stroke-linecap="round"/>
<path d="M 388.0 323 L 358.0 323 L 368.0 455 L 388.0 455 Z" fill="#e9e3d4" stroke="#1a1a1a" stroke-width="4" stroke-linejoin="round"/>
<path d="M 400.0 323 L 430.0 323 L 420.0 455 L 400.0 455 Z" fill="#e9e3d4" stroke="#1a1a1a" stroke-width="4" stroke-linejoin="round"/>
<path d="M 358.0 199 L 430.0 199 L 428.0 323 L 360.0 323 Z" fill="#cfd8e0" stroke="#1a1a1a" stroke-width="4" stroke-linejoin="round"/>
<path d="M 358.0 199 Q 342.0 221 352.0 251" fill="none" stroke="#cfd8e0" stroke-width="7" stroke-linejoin="round"/>
<path d="M 430.0 199 Q 446.0 221 436.0 251" fill="none" stroke="#cfd8e0" stroke-width="7" stroke-linejoin="round"/>
<path d="M 370.0 205 L 418.0 205 L 420.0 307 L 368.0 307 Z" fill="#3a5f7a" stroke="#1a1a1a" stroke-width="4" stroke-linejoin="round"/>
<path d="M 360.0 203 L 394.0 271 L 428.0 203" fill="none" stroke="#f3ede0" stroke-width="4" stroke-linejoin="round"/>
<rect x="365" y="293" width="58" height="12" rx="0" fill="#2e4153" stroke="#1a1a1a" stroke-width="3"/>
<line x1="364" y1="199" x2="344" y2="305" stroke="#ffffff" stroke-width="20" stroke-linecap="round"/>
<line x1="364" y1="199" x2="344" y2="305" stroke="#1a1a1a" stroke-width="13.0" stroke-linecap="round"/>
<line x1="424" y1="199" x2="444" y2="305" stroke="#ffffff" stroke-width="20" stroke-linecap="round"/>
<line x1="424" y1="199" x2="444" y2="305" stroke="#1a1a1a" stroke-width="13.0" stroke-linecap="round"/>
<circle id="h3" data-fig="ma" cx="394" cy="130" r="40" fill="#f5d6b0" stroke="#1a1a1a" stroke-width="6" class="skin"/>
<path d="M 354.0 130.0 Q 354.0 80.0 394 80.0 Q 434.0 80.0 434.0 130.0 Q 394 103.0 354.0 130.0 Z" fill="#241c14" stroke="#1a1a1a" stroke-width="3" stroke-linejoin="round"/>
<line x1="130" y1="92" x2="130" y2="70" stroke="#6a737d" stroke-width="5" stroke-linecap="round"/>
<line x1="130" y1="70" x2="394" y2="70" stroke="#6a737d" stroke-width="5" stroke-linecap="round"/>
<line x1="394" y1="70" x2="394" y2="92" stroke="#6a737d" stroke-width="5" stroke-linecap="round"/>
<line x1="394" y1="300" x2="262" y2="318" stroke="#6a737d" stroke-width="6" stroke-linecap="round"/>
<line x1="168" y1="248" x2="190" y2="248" stroke="#e0473c" stroke-width="12" stroke-linecap="round"/>
<polygon points="222,248 195,265 195,231" fill="#e0473c" stroke="#e0473c" stroke-width="2" stroke-linejoin="round"/>
</g></svg>
