<svg data-cover="arms:covered" xmlns="http://www.w3.org/2000/svg" viewBox="36.85 52.21 438.30 438.30"><metadata id="sah">{"v":1,"fig":[["h1","ma"],["h2","ma"]]}</metadata>
<line x1="120" y1="455" x2="392" y2="455" stroke="#9aa7b5" stroke-width="5" stroke-linecap="round"/>
<line x1="165" y1="303" x2="156" y2="455" stroke="#39425c" stroke-width="16.0" stroke-linecap="round"/>
<line x1="195" y1="303" x2="204" y2="455" stroke="#39425c" stroke-width="16.0" stroke-linecap="round"/>
<ellipse cx="156" cy="457" rx="13" ry="7" fill="#33373d"/>
<ellipse cx="204" cy="457" rx="13" ry="7" fill="#33373d"/>
<polygon points="148,197 212,197 210,305 150,305" fill="#cfd8e0" stroke="#1a1a1a" stroke-width="5" stroke-linejoin="round"/>
<line x1="150" y1="199" x2="134" y2="305" stroke="#1a1a1a" stroke-width="13.0" stroke-linecap="round"/>
<line x1="210" y1="199" x2="238" y2="151" stroke="#1a1a1a" stroke-width="13.0" stroke-linecap="round"/>
<line x1="180" y1="197" x2="180" y2="166" stroke="#1a1a1a" stroke-width="13.0" stroke-linecap="round"/>
<path d="M 174.0 323 L 144.0 323 L 154.0 455 L 174.0 455 Z" fill="#e9e3d4" stroke="#1a1a1a" stroke-width="4" stroke-linejoin="round"/>
<path d="M 186.0 323 L 216.0 323 L 206.0 455 L 186.0 455 Z" fill="#e9e3d4" stroke="#1a1a1a" stroke-width="4" stroke-linejoin="round"/>
<path d="M 144.0 199 L 216.0 199 L 214.0 323 L 146.0 323 Z" fill="#cfd8e0" stroke="#1a1a1a" stroke-width="4" stroke-linejoin="round"/>
<path d="M 144.0 199 Q 128.0 221 138.0 251" fill="none" stroke="#cfd8e0" stroke-width="7" stroke-linejoin="round"/>
<path d="M 216.0 199 Q 232.0 221 222.0 251" fill="none" stroke="#cfd8e0" stroke-width="7" stroke-linejoin="round"/>
<path d="M 156.0 205 L 204.0 205 L 206.0 307 L 154.0 307 Z" fill="#3a5f7a" stroke="#1a1a1a" stroke-width="4" stroke-linejoin="round"/>
<path d="M 146.0 203 L 180.0 271 L 214.0 203" fill="none" stroke="#f3ede0" stroke-width="4" stroke-linejoin="round"/>
<rect x="151" y="293" width="58" height="12" rx="0" fill="#2e4153" stroke="#1a1a1a" stroke-width="3"/>
<line x1="150" y1="199" x2="134" y2="305" stroke="#ffffff" stroke-width="20" stroke-linecap="round"/>
<line x1="150" y1="199" x2="134" y2="305" stroke="#1a1a1a" stroke-width="13.0" stroke-linecap="round"/>
<circle id="h1" data-fig="ma" class="skin" cx="180" cy="130" r="40" fill="#f5d6b0" stroke="#1a1a1a" stroke-width="6"/>
<path d="M 140.0 130.0 Q 140.0 80.0 180 80.0 Q 220.0 80.0 220.0 130.0 Q 180 103.0 140.0 130.0 Z" fill="#241c14" stroke="#1a1a1a" stroke-width="3" stroke-linejoin="round"/>
<circle cx="167" cy="127" r="4" fill="#1a1a1a" stroke="#1a1a1a" stroke-width="0"/>
<circle cx="193" cy="127" r="4" fill="#1a1a1a" stroke="#1a1a1a" stroke-width="0"/>
<path d="M 166.0 144.0 Q 180 160.0 194.0 144.0" fill="none" stroke="#1a1a1a" stroke-width="4" stroke-linejoin="round"/>
<line x1="317" y1="303" x2="308" y2="455" stroke="#39425c" stroke-width="16.0" stroke-linecap="round"/>
<line x1="347" y1="303" x2="356" y2="455" stroke="#39425c" stroke-width="16.0" stroke-linecap="round"/>
<ellipse cx="308" cy="457" rx="13" ry="7" fill="#33373d"/>
<ellipse cx="356" cy="457" rx="13" ry="7" fill="#33373d"/>
<polygon points="300,197 364,197 362,305 302,305" fill="#cfd8e0" stroke="#1a1a1a" stroke-width="5" stroke-linejoin="round"/>
<line x1="302" y1="199" x2="282" y2="305" stroke="#1a1a1a" stroke-width="13.0" stroke-linecap="round"/>
<line x1="362" y1="199" x2="382" y2="305" stroke="#1a1a1a" stroke-width="13.0" stroke-linecap="round"/>
<line x1="332" y1="197" x2="332" y2="166" stroke="#1a1a1a" stroke-width="13.0" stroke-linecap="round"/>
<path d="M 326.0 323 L 296.0 323 L 306.0 455 L 326.0 455 Z" fill="#e9e3d4" stroke="#1a1a1a" stroke-width="4" stroke-linejoin="round"/>
<path d="M 338.0 323 L 368.0 323 L 358.0 455 L 338.0 455 Z" fill="#e9e3d4" stroke="#1a1a1a" stroke-width="4" stroke-linejoin="round"/>
<path d="M 296.0 199 L 368.0 199 L 366.0 323 L 298.0 323 Z" fill="#cfd8e0" stroke="#1a1a1a" stroke-width="4" stroke-linejoin="round"/>
<path d="M 296.0 199 Q 280.0 221 290.0 251" fill="none" stroke="#cfd8e0" stroke-width="7" stroke-linejoin="round"/>
<path d="M 368.0 199 Q 384.0 221 374.0 251" fill="none" stroke="#cfd8e0" stroke-width="7" stroke-linejoin="round"/>
<path d="M 308.0 205 L 356.0 205 L 358.0 307 L 306.0 307 Z" fill="#3a5f7a" stroke="#1a1a1a" stroke-width="4" stroke-linejoin="round"/>
<path d="M 298.0 203 L 332.0 271 L 366.0 203" fill="none" stroke="#f3ede0" stroke-width="4" stroke-linejoin="round"/>
<rect x="303" y="293" width="58" height="12" rx="0" fill="#2e4153" stroke="#1a1a1a" stroke-width="3"/>
<line x1="302" y1="199" x2="282" y2="305" stroke="#ffffff" stroke-width="20" stroke-linecap="round"/>
<line x1="302" y1="199" x2="282" y2="305" stroke="#1a1a1a" stroke-width="13.0" stroke-linecap="round"/>
<line x1="362" y1="199" x2="382" y2="305" stroke="#ffffff" stroke-width="20" stroke-linecap="round"/>
<line x1="362" y1="199" x2="382" y2="305" stroke="#1a1a1a" stroke-width="13.0" stroke-linecap="round"/>
<circle id="h2" data-fig="ma" class="skin" cx="332" cy="130" r="40" fill="#f5d6b0" stroke="#1a1a1a" stroke-width="6"/>
<path d="M 292.0 130.0 Q 292.0 80.0 332 80.0 Q 372.0 80.0 372.0 130.0 Q 332 103.0 292.0 130.0 Z" fill="#241c14" stroke="#1a1a1a" stroke-width="3" stroke-linejoin="round"/>
<circle cx="319" cy="127" r="4" fill="#1a1a1a" stroke="#1a1a1a" stroke-width="0"/>
<circle cx="345" cy="127" r="4" fill="#1a1a1a" stroke="#1a1a1a" stroke-width="0"/>
<path d="M 318.0 144.0 Q 332 160.0 346.0 144.0" fill="none" stroke="#1a1a1a" stroke-width="4" stroke-linejoin="round"/>
<path d="M 248 140 q 8 6 0 14" fill="none" stroke="#8a8f98" stroke-width="2" stroke-linejoin="round"/>
<path d="M 256 136 q 12 8 0 20" fill="none" stroke="#8a8f98" stroke-width="2" stroke-linejoin="round"/>
<path d="M 256 156 C 238 140 238 158 256 168 C 274 158 274 140 256 156 Z" fill="#e0473c" stroke="#1a1a1a" stroke-width="3" stroke-linejoin="round"/>
</svg>
