<svg data-cover="arms:covered" xmlns="http://www.w3.org/2000/svg" viewBox="0 0 512 512" data-copyright="© 2026 Sensory App House"><!--SAH-COPYRIGHT © 2026 Sensory App House. All rights reserved.--><metadata id="sah-copyright"><rdf:RDF xmlns:rdf="http://www.w3.org/1999/02/22-rdf-syntax-ns#" xmlns:dc="http://purl.org/dc/elements/1.1/" xmlns:cc="http://creativecommons.org/ns#"><cc:Work rdf:about=""><dc:rights><cc:Agent><dc:title>© 2026 Sensory App House. All rights reserved.</dc:title></cc:Agent></dc:rights><dc:creator><cc:Agent><dc:title>Sensory App House (PiCom)</dc:title></cc:Agent></dc:creator><dc:date>2026</dc:date></cc:Work></rdf:RDF></metadata><metadata id="sah">{"v":1,"fig":[["h1","ma"]]}</metadata><g data-fit="1" transform="translate(256 256) scale(1.1553) translate(-246.50 -269.00)">
<g transform="translate(49.6,146.4) scale(0.628)"><!-- Church building -->
  <rect x="40" y="240" width="200" height="180" fill="#f0e3c4" stroke="#1a1a1a" stroke-width="5" />
  <polygon points="30,240 140,150 250,240" fill="#a83a2a" stroke="#1a1a1a" stroke-width="5" stroke-linejoin="round" />
  <!-- Tower -->
  <rect x="110" y="120" width="60" height="130" fill="#f0e3c4" stroke="#1a1a1a" stroke-width="5" />
  <polygon points="110,120 140,60 170,120" fill="#a83a2a" stroke="#1a1a1a" stroke-width="5" stroke-linejoin="round" />
  <!-- Cross on top -->
  <rect x="134" y="20" width="12" height="44" fill="#1a1a1a" />
  <rect x="123" y="32" width="34" height="11" fill="#1a1a1a" />
  <!-- Round window on tower -->
  <circle cx="140" cy="160" r="14" fill="#f4c542" stroke="#1a1a1a" stroke-width="4" />
  <!-- Door (arched) -->
  <path d="M105 420 L105 320 q35 -42 70 0 L175 420 Z" fill="#6b3f17" stroke="#1a1a1a" stroke-width="5" stroke-linejoin="round" />
  <line x1="140" y1="298" x2="140" y2="420" stroke="#1a1a1a" stroke-width="5" />
  <!-- Side windows -->
  <path d="M52 360 L52 300 q22 -28 44 0 L96 360 Z" fill="#3a7bd6" stroke="#1a1a1a" stroke-width="5" stroke-linejoin="round" />
  <line x1="74" y1="284" x2="74" y2="360" stroke="#1a1a1a" stroke-width="4" />
  <line x1="52" y1="330" x2="96" y2="330" stroke="#1a1a1a" stroke-width="4" />
  <path d="M184 360 L184 300 q22 -28 44 0 L228 360 Z" fill="#3a7bd6" stroke="#1a1a1a" stroke-width="5" stroke-linejoin="round" />
  <line x1="206" y1="284" x2="206" y2="360" stroke="#1a1a1a" stroke-width="4" />
  <line x1="184" y1="330" x2="228" y2="330" stroke="#1a1a1a" stroke-width="4" /></g>
<polygon points="336,197 400,197 398,305 338,305" fill="#cfd8e0" stroke="#1a1a1a" stroke-width="5" stroke-linejoin="round"/>
<line x1="350" y1="303" x2="344" y2="455" stroke="#39425c" stroke-width="16" stroke-linecap="round"/>
<line x1="386" y1="303" x2="392" y2="455" stroke="#39425c" stroke-width="16" stroke-linecap="round"/>
<ellipse cx="344" cy="457" rx="13" ry="7" fill="#33373d"/>
<ellipse cx="392" cy="457" rx="13" ry="7" fill="#33373d"/>
<line x1="338" y1="199" x2="318" y2="305" stroke="#1a1a1a" stroke-width="13.0" stroke-linecap="round"/>
<line x1="398" y1="199" x2="418" y2="305" stroke="#1a1a1a" stroke-width="13.0" stroke-linecap="round"/>
<line x1="368" y1="197" x2="368" y2="166" stroke="#1a1a1a" stroke-width="13.0" stroke-linecap="round"/>
<path d="M 362.0 323 L 332.0 323 L 342.0 455 L 362.0 455 Z" fill="#e9e3d4" stroke="#1a1a1a" stroke-width="4" stroke-linejoin="round"/>
<path d="M 374.0 323 L 404.0 323 L 394.0 455 L 374.0 455 Z" fill="#e9e3d4" stroke="#1a1a1a" stroke-width="4" stroke-linejoin="round"/>
<path d="M 332.0 199 L 404.0 199 L 402.0 323 L 334.0 323 Z" fill="#cfd8e0" stroke="#1a1a1a" stroke-width="4" stroke-linejoin="round"/>
<path d="M 332.0 199 Q 316.0 221 326.0 251" fill="none" stroke="#cfd8e0" stroke-width="7" stroke-linejoin="round"/>
<path d="M 404.0 199 Q 420.0 221 410.0 251" fill="none" stroke="#cfd8e0" stroke-width="7" stroke-linejoin="round"/>
<path d="M 344.0 205 L 392.0 205 L 394.0 307 L 342.0 307 Z" fill="#3a5f7a" stroke="#1a1a1a" stroke-width="4" stroke-linejoin="round"/>
<path d="M 334.0 203 L 368.0 271 L 402.0 203" fill="none" stroke="#f3ede0" stroke-width="4" stroke-linejoin="round"/>
<rect x="339" y="293" width="58" height="12" rx="0" fill="#2e4153" stroke="#1a1a1a" stroke-width="3"/>
<line x1="338" y1="199" x2="318" y2="305" stroke="#ffffff" stroke-width="20" stroke-linecap="round"/>
<line x1="338" y1="199" x2="318" y2="305" stroke="#1a1a1a" stroke-width="13.0" stroke-linecap="round"/>
<line x1="398" y1="199" x2="418" y2="305" stroke="#ffffff" stroke-width="20" stroke-linecap="round"/>
<line x1="398" y1="199" x2="418" y2="305" stroke="#1a1a1a" stroke-width="13.0" stroke-linecap="round"/>
<circle id="h1" data-fig="ma" cx="368" cy="130" r="40" fill="#f5d6b0" stroke="#1a1a1a" stroke-width="6" class="skin"/>
<path d="M 328 130 Q 328 80 368 80 Q 408 80 408 130 Q 368 103 328 130 Z" fill="#241c14" stroke="#1a1a1a" stroke-width="3" stroke-linejoin="round"/>
</g></svg>
