<svg data-cover="arms:covered" xmlns="http://www.w3.org/2000/svg" viewBox="0 0 512 512" data-copyright="© 2026 Sensory App House"><!--SAH-COPYRIGHT © 2026 Sensory App House. All rights reserved.--><metadata id="sah-copyright"><rdf:RDF xmlns:rdf="http://www.w3.org/1999/02/22-rdf-syntax-ns#" xmlns:dc="http://purl.org/dc/elements/1.1/" xmlns:cc="http://creativecommons.org/ns#"><cc:Work rdf:about=""><dc:rights><cc:Agent><dc:title>© 2026 Sensory App House. All rights reserved.</dc:title></cc:Agent></dc:rights><dc:creator><cc:Agent><dc:title>Sensory App House (PiCom)</dc:title></cc:Agent></dc:creator><dc:date>2026</dc:date></cc:Work></rdf:RDF></metadata><metadata id="sah">{"v":1,"fig":[["h1","fa"]]}</metadata><g data-fit="1" transform="translate(256 256) scale(1.1673) translate(-274.00 -271.00)">
<line x1="117" y1="303" x2="162" y2="455" stroke="#39425c" stroke-width="16.0" stroke-linecap="round"/>
<line x1="147" y1="303" x2="106" y2="455" stroke="#39425c" stroke-width="16.0" stroke-linecap="round"/>
<ellipse cx="162" cy="457" rx="13" ry="7" fill="#33373d"/>
<ellipse cx="106" cy="457" rx="13" ry="7" fill="#33373d"/>
<polygon points="100,197 164,197 162,305 102,305" fill="#f3ede0" stroke="#1a1a1a" stroke-width="5" stroke-linejoin="round"/>
<line x1="102" y1="199" x2="88" y2="305" stroke="#1a1a1a" stroke-width="13.0" stroke-linecap="round"/>
<line x1="162" y1="199" x2="182" y2="287" stroke="#1a1a1a" stroke-width="13.0" stroke-linecap="round"/>
<line x1="132" y1="197" x2="132" y2="166" stroke="#1a1a1a" stroke-width="13.0" stroke-linecap="round"/>
<path d="M 85.0 184.0 L 85.0 128.0 Q 85.0 76.0 132.0 76.0 Q 179.0 76.0 179.0 128.0 L 179.0 184.0 L 166.0 184.0 L 166.0 130.0 Q 166.0 96.0 132.0 96.0 Q 98.0 96.0 98.0 130.0 L 98.0 184.0 Z" fill="#5a3a1f" stroke="#1a1a1a" stroke-width="3"/>
<path d="M 102.0 223 L 162.0 223 L 194.0 455 Q 132.0 465 70.0 455 Z" fill="#6db5d8" stroke="#1a1a1a" stroke-width="4" stroke-linejoin="round"/>
<path d="M 96.0 199 L 168.0 199 L 162.0 229 L 102.0 229 Z" fill="#f3ede0" stroke="#1a1a1a" stroke-width="4" stroke-linejoin="round"/>
<path d="M 98.0 203 L 132.0 271 L 166.0 203" fill="none" stroke="#d24b6a" stroke-width="4" stroke-linejoin="round"/>
<path d="M 94.0 201 Q 90.0 219 98.0 227" fill="none" stroke="#f3ede0" stroke-width="4" stroke-linejoin="round"/>
<path d="M 170.0 201 Q 174.0 219 166.0 227" fill="none" stroke="#f3ede0" stroke-width="4" stroke-linejoin="round"/>
<line x1="138" y1="227" x2="134" y2="231" stroke="#c0392b" stroke-width="6" stroke-linecap="round"/>
<line x1="138" y1="227" x2="144" y2="233" stroke="#c0392b" stroke-width="6" stroke-linecap="round"/>
<line x1="102" y1="199" x2="88" y2="305" stroke="#ffffff" stroke-width="20" stroke-linecap="round"/>
<line x1="102" y1="199" x2="88" y2="305" stroke="#1a1a1a" stroke-width="13.0" stroke-linecap="round"/>
<line x1="162" y1="199" x2="182" y2="287" stroke="#ffffff" stroke-width="20" stroke-linecap="round"/>
<line x1="162" y1="199" x2="182" y2="287" stroke="#1a1a1a" stroke-width="13.0" stroke-linecap="round"/>
<circle id="h1" data-fig="fa" class="skin" cx="132" cy="130" r="40" fill="#f5d6b0" stroke="#1a1a1a" stroke-width="6"/>
<path d="M 94.0 96.0 Q 132.0 82.0 170.0 96.0 Q 132.0 92.0 94.0 96.0 Z" fill="#5a3a1f" stroke="#1a1a1a" stroke-width="3"/>
<path d="M 138.0 227 l -14 -8 l 0 12 Z" fill="#c0392b" stroke="#1a1a1a" stroke-width="2" stroke-linejoin="round"/>
<path d="M 138.0 227 l 14 -8 l 0 12 Z" fill="#c0392b" stroke="#1a1a1a" stroke-width="2" stroke-linejoin="round"/>
<path d="M 250.0 265.0 L 408.0 265.0 L 408.0 281.0 L 452.0 250.0 L 408.0 219.0 L 408.0 235.0 L 250.0 235.0 Z" fill="#3aa6d6" stroke="#1a1a1a" stroke-width="4" stroke-linejoin="round" stroke-linecap="round"/>


</g></svg>
