<svg data-cover="arms:covered" xmlns="http://www.w3.org/2000/svg" viewBox="0 0 512 512" data-copyright="© 2026 Sensory App House"><!--SAH-COPYRIGHT © 2026 Sensory App House. All rights reserved.--><metadata id="sah-copyright"><rdf:RDF xmlns:rdf="http://www.w3.org/1999/02/22-rdf-syntax-ns#" xmlns:dc="http://purl.org/dc/elements/1.1/" xmlns:cc="http://creativecommons.org/ns#"><cc:Work rdf:about=""><dc:rights><cc:Agent><dc:title>© 2026 Sensory App House. All rights reserved.</dc:title></cc:Agent></dc:rights><dc:creator><cc:Agent><dc:title>Sensory App House (PiCom)</dc:title></cc:Agent></dc:creator><dc:date>2026</dc:date></cc:Work></rdf:RDF></metadata><metadata id="sah">{"v":1,"fig":[["h1","ma"]]}</metadata><line x1="241" y1="300" x2="232" y2="452" stroke="#39425c" stroke-width="16" stroke-linecap="round"/><line x1="271" y1="300" x2="280" y2="452" stroke="#39425c" stroke-width="16" stroke-linecap="round"/><ellipse cx="232" cy="454" rx="13" ry="7" fill="#33373d"/><ellipse cx="280" cy="454" rx="13" ry="7" fill="#33373d"/><polygon points="224,190 288,190 286,300 226,300" fill="#cfd8e0" stroke="#1a1a1a" stroke-width="5" stroke-linejoin="round"/><line x1="226" y1="192" x2="244" y2="256" stroke="#1a1a1a" stroke-width="13" stroke-linecap="round"/><line x1="286" y1="192" x2="268" y2="256" stroke="#1a1a1a" stroke-width="13" stroke-linecap="round"/><line x1="256" y1="190" x2="256" y2="160" stroke="#1a1a1a" stroke-width="13" stroke-linecap="round"/><g transform="translate(0,-6)"><path d="M 250.0 323 L 220.0 323 L 230.0 455 L 250.0 455 Z" fill="#e9e3d4" stroke="#1a1a1a" stroke-width="4" stroke-linejoin="round"/>
<path d="M 262.0 323 L 292.0 323 L 282.0 455 L 262.0 455 Z" fill="#e9e3d4" stroke="#1a1a1a" stroke-width="4" stroke-linejoin="round"/>
<path d="M 220.0 199 L 292.0 199 L 290.0 323 L 222.0 323 Z" fill="#cfd8e0" stroke="#1a1a1a" stroke-width="4" stroke-linejoin="round"/>
<path d="M 220.0 199 Q 204.0 221 214.0 251" fill="none" stroke="#cfd8e0" stroke-width="7" stroke-linejoin="round"/>
<path d="M 292.0 199 Q 308.0 221 298.0 251" fill="none" stroke="#cfd8e0" stroke-width="7" stroke-linejoin="round"/>
<path d="M 232.0 205 L 280.0 205 L 282.0 307 L 230.0 307 Z" fill="#3a5f7a" stroke="#1a1a1a" stroke-width="4" stroke-linejoin="round"/>
<path d="M 222.0 203 L 256.0 271 L 290.0 203" fill="none" stroke="#f3ede0" stroke-width="4" stroke-linejoin="round"/>
<rect x="227" y="293" width="58" height="12" rx="0" fill="#2e4153" stroke="#1a1a1a" stroke-width="3"/></g>
<line x1="226" y1="192" x2="244" y2="256" stroke="#ffffff" stroke-width="20" stroke-linecap="round"/>
<line x1="226" y1="192" x2="244" y2="256" stroke="#1a1a1a" stroke-width="13" stroke-linecap="round"/>
<line x1="286" y1="192" x2="268" y2="256" stroke="#ffffff" stroke-width="20" stroke-linecap="round"/>
<line x1="286" y1="192" x2="268" y2="256" stroke="#1a1a1a" stroke-width="13" stroke-linecap="round"/>
<circle id="h1" data-fig="ma" class="skin" cx="256" cy="124" r="40" fill="#f5d6b0" stroke="#1a1a1a" stroke-width="6"/><path d="M 216 124 Q 216 74.0 256 74.0 Q 296 74.0 296 124 Q 256 97.0 216 124 Z" fill="#241c14" stroke="#1a1a1a" stroke-width="3" stroke-linejoin="round"/><rect x="246" y="372" width="20" height="62" fill="#8a5a3a" stroke="#1a1a1a" stroke-width="3"/><ellipse cx="256" cy="440" rx="46" ry="10" fill="#8a5a3a" stroke="#1a1a1a" stroke-width="3"/><ellipse cx="256" cy="372" rx="132" ry="32" fill="#1f7a44" stroke="#1a1a1a" stroke-width="4"/><ellipse cx="256" cy="367" rx="118" ry="25" fill="#27945a"/><g transform="rotate(-28 256 286)"><rect x="244" y="236" width="24" height="44" rx="3" fill="#fff" stroke="#1a1a1a" stroke-width="2.5"/><path d="M 256 248 l 6 8 -6 8 -6 -8 Z" fill="#e0473c"/></g><g transform="rotate(-10 256 286)"><rect x="244" y="236" width="24" height="44" rx="3" fill="#fff" stroke="#1a1a1a" stroke-width="2.5"/><path d="M 256 248 l 6 8 -6 8 -6 -8 Z" fill="#e0473c"/></g><g transform="rotate(8 256 286)"><rect x="244" y="236" width="24" height="44" rx="3" fill="#fff" stroke="#1a1a1a" stroke-width="2.5"/><path d="M 256 248 l 6 8 -6 8 -6 -8 Z" fill="#e0473c"/></g><g transform="rotate(26 256 286)"><rect x="244" y="236" width="24" height="44" rx="3" fill="#fff" stroke="#1a1a1a" stroke-width="2.5"/><path d="M 256 248 l 6 8 -6 8 -6 -8 Z" fill="#e0473c"/></g></svg>
